M48
; DRILL file {KiCad 9.0.6} date 2026-01-12T13:16:57+0100
; FORMAT={-:-/ absolute / metric / decimal}
; #@! TF.CreationDate,2026-01-12T13:16:57+01:00
; #@! TF.GenerationSoftware,Kicad,Pcbnew,9.0.6
; #@! TF.FileFunction,Plated,1,2,PTH
FMAT,2
METRIC
; #@! TA.AperFunction,Plated,PTH,ViaDrill
T1C0.300
; #@! TA.AperFunction,Plated,PTH,ViaDrill
T2C0.350
; #@! TA.AperFunction,Plated,PTH,ViaDrill
T3C0.400
; #@! TA.AperFunction,Plated,PTH,ComponentDrill
T4C0.450
; #@! TA.AperFunction,Plated,PTH,ComponentDrill
T5C1.000
; #@! TA.AperFunction,Plated,PTH,ComponentDrill
T6C2.500
%
G90
G05
T1
X137.614Y-98.587
X139.866Y-93.43
X140.243Y-96.918
X141.339Y-76.575
X141.884Y-99.912
X142.33Y-91.747
X142.564Y-90.925
X142.615Y-106.846
X142.646Y-95.179
X142.646Y-98.833
X144.0Y-84.5
X144.784Y-103.213
X145.472Y-105.225
X146.811Y-82.911
X146.845Y-71.103
X146.865Y-94.198
X147.7Y-85.569
X148.161Y-100.172
X148.26Y-98.802
X148.454Y-96.825
X148.591Y-86.084
X148.949Y-84.768
X150.105Y-105.551
X150.427Y-75.017
X150.664Y-87.975
X151.49Y-103.438
X153.791Y-97.484
X153.805Y-102.787
X154.23Y-83.115
X154.579Y-80.068
X154.627Y-100.578
X156.591Y-90.925
X156.738Y-79.394
X157.481Y-77.497
X157.525Y-99.102
X158.022Y-100.326
X158.546Y-79.447
X159.94Y-79.05
X160.58Y-76.072
X160.688Y-96.825
X160.995Y-90.925
X162.247Y-73.348
X162.468Y-75.838
X162.519Y-64.43
X163.576Y-77.314
X164.934Y-86.871
X164.983Y-79.643
X165.383Y-81.018
X166.167Y-87.143
X167.618Y-74.886
X168.425Y-74.15
X169.237Y-79.045
X170.004Y-84.158
X170.537Y-73.564
X171.213Y-88.159
X171.343Y-72.584
X171.913Y-79.003
X172.513Y-89.235
X172.52Y-73.722
X172.723Y-72.59
X173.662Y-71.188
X173.883Y-75.087
X174.296Y-72.516
X174.374Y-91.975
X175.928Y-94.725
X176.327Y-78.448
X176.762Y-96.325
X176.928Y-89.169
X177.172Y-92.763
X177.601Y-71.188
X178.0Y-94.11
X178.035Y-99.777
X179.736Y-88.414
X179.874Y-86.932
X180.185Y-90.775
X180.287Y-93.435
X180.316Y-72.868
X180.554Y-76.779
X180.998Y-96.036
X181.093Y-93.413
X182.37Y-85.143
X182.396Y-87.112
X182.541Y-99.775
X182.931Y-76.675
X183.01Y-90.779
X183.508Y-93.712
X183.51Y-72.767
X183.522Y-79.425
X183.524Y-74.085
X183.6Y-99.775
X183.929Y-88.6
X184.124Y-90.479
X184.337Y-81.925
X184.5Y-73.5
X184.616Y-94.703
X184.994Y-77.013
X185.344Y-66.71
X185.998Y-91.332
X186.53Y-79.407
X186.73Y-81.922
X186.73Y-88.6
X186.968Y-106.887
X187.5Y-70.5
X189.887Y-74.1
X191.005Y-81.594
X191.011Y-88.362
X191.212Y-79.75
X191.212Y-82.888
X191.212Y-83.775
X191.212Y-85.675
X191.212Y-91.45
X191.223Y-86.975
X192.419Y-94.425
T2
X152.723Y-95.825
X154.861Y-76.285
X165.483Y-95.24
X190.19Y-77.133
X192.113Y-76.302
T3
X138.181Y-91.898
T5
X136.03Y-67.235
X136.03Y-69.775
X138.57Y-67.235
X138.57Y-69.775
X141.11Y-67.235
X141.11Y-69.775
X143.65Y-67.235
X143.65Y-69.775
X146.19Y-67.235
X146.19Y-69.775
X147.88Y-81.248
X147.88Y-83.787
X148.73Y-67.235
X148.73Y-69.775
X150.42Y-81.248
X150.42Y-83.787
X151.27Y-67.235
X151.27Y-69.775
X152.96Y-81.248
X152.96Y-83.787
X153.81Y-67.235
X153.81Y-69.775
X155.5Y-81.248
X155.5Y-83.787
X156.35Y-67.235
X156.35Y-69.775
X158.04Y-81.248
X158.04Y-83.787
X158.89Y-67.235
X158.89Y-69.775
X160.58Y-81.248
X160.58Y-83.787
X161.43Y-67.235
X161.43Y-69.775
X163.12Y-81.248
X163.12Y-83.787
X163.97Y-67.235
X163.97Y-69.775
X170.65Y-67.235
X170.65Y-69.775
X172.955Y-102.712
X172.955Y-105.252
X173.19Y-67.235
X173.19Y-69.775
X175.495Y-102.712
X175.495Y-105.252
X175.73Y-67.235
X175.73Y-69.775
X178.035Y-102.712
X178.035Y-105.252
X178.27Y-67.235
X178.27Y-69.775
X180.81Y-67.235
X180.81Y-69.775
X183.35Y-67.235
X183.35Y-69.775
T6
X134.5Y-62.0
X134.5Y-110.5
X193.0Y-62.0
X193.0Y-110.5
T4
G00X133.6Y-95.7
M15
G01X132.4Y-95.7
M16
G05
G00X133.6Y-104.6
M15
G01X132.4Y-104.6
M16
G05
G00X136.7Y-95.7
M15
G01X135.7Y-95.7
M16
G05
G00X136.7Y-104.6
M15
G01X135.7Y-104.6
M16
G05
M30
