%TF.GenerationSoftware,KiCad,Pcbnew,9.0.6*%
%TF.CreationDate,2026-01-12T13:11:15+01:00*%
%TF.ProjectId,IoT-Werkstatt_Band1,496f542d-5765-4726-9b73-746174745f42,rev?*%
%TF.SameCoordinates,Original*%
%TF.FileFunction,Soldermask,Top*%
%TF.FilePolarity,Negative*%
%FSLAX46Y46*%
G04 Gerber Fmt 4.6, Leading zero omitted, Abs format (unit mm)*
G04 Created by KiCad (PCBNEW 9.0.6) date 2026-01-12 13:11:15*
%MOMM*%
%LPD*%
G01*
G04 APERTURE LIST*
G04 Aperture macros list*
%AMRoundRect*
0 Rectangle with rounded corners*
0 $1 Rounding radius*
0 $2 $3 $4 $5 $6 $7 $8 $9 X,Y pos of 4 corners*
0 Add a 4 corners polygon primitive as box body*
4,1,4,$2,$3,$4,$5,$6,$7,$8,$9,$2,$3,0*
0 Add four circle primitives for the rounded corners*
1,1,$1+$1,$2,$3*
1,1,$1+$1,$4,$5*
1,1,$1+$1,$6,$7*
1,1,$1+$1,$8,$9*
0 Add four rect primitives between the rounded corners*
20,1,$1+$1,$2,$3,$4,$5,0*
20,1,$1+$1,$4,$5,$6,$7,0*
20,1,$1+$1,$6,$7,$8,$9,0*
20,1,$1+$1,$8,$9,$2,$3,0*%
G04 Aperture macros list end*
%ADD10C,0.010000*%
%ADD11C,2.900000*%
%ADD12C,5.000000*%
%ADD13RoundRect,0.102000X-0.200000X0.400000X-0.200000X-0.400000X0.200000X-0.400000X0.200000X0.400000X0*%
%ADD14RoundRect,0.102000X-0.400000X0.200000X-0.400000X-0.200000X0.400000X-0.200000X0.400000X0.200000X0*%
%ADD15RoundRect,0.102000X-0.600000X0.600000X-0.600000X-0.600000X0.600000X-0.600000X0.600000X0.600000X0*%
%ADD16RoundRect,0.102000X-0.400000X0.400000X-0.400000X-0.400000X0.400000X-0.400000X0.400000X0.400000X0*%
%ADD17RoundRect,0.218750X-0.218750X-0.256250X0.218750X-0.256250X0.218750X0.256250X-0.218750X0.256250X0*%
%ADD18RoundRect,0.200000X-0.200000X-0.275000X0.200000X-0.275000X0.200000X0.275000X-0.200000X0.275000X0*%
%ADD19RoundRect,0.200000X0.200000X0.275000X-0.200000X0.275000X-0.200000X-0.275000X0.200000X-0.275000X0*%
%ADD20RoundRect,0.225000X-0.250000X0.225000X-0.250000X-0.225000X0.250000X-0.225000X0.250000X0.225000X0*%
%ADD21RoundRect,0.200000X-0.275000X0.200000X-0.275000X-0.200000X0.275000X-0.200000X0.275000X0.200000X0*%
%ADD22RoundRect,0.250000X0.475000X-0.250000X0.475000X0.250000X-0.475000X0.250000X-0.475000X-0.250000X0*%
%ADD23RoundRect,0.112500X-0.237500X0.112500X-0.237500X-0.112500X0.237500X-0.112500X0.237500X0.112500X0*%
%ADD24R,1.000000X1.700000*%
%ADD25RoundRect,0.200000X0.275000X-0.200000X0.275000X0.200000X-0.275000X0.200000X-0.275000X-0.200000X0*%
%ADD26RoundRect,0.250000X0.375000X0.625000X-0.375000X0.625000X-0.375000X-0.625000X0.375000X-0.625000X0*%
%ADD27RoundRect,0.225000X0.225000X0.250000X-0.225000X0.250000X-0.225000X-0.250000X0.225000X-0.250000X0*%
%ADD28RoundRect,0.150000X0.587500X0.150000X-0.587500X0.150000X-0.587500X-0.150000X0.587500X-0.150000X0*%
%ADD29R,1.700000X1.000000*%
%ADD30RoundRect,0.250000X0.250000X0.475000X-0.250000X0.475000X-0.250000X-0.475000X0.250000X-0.475000X0*%
%ADD31RoundRect,0.150000X-0.512500X-0.150000X0.512500X-0.150000X0.512500X0.150000X-0.512500X0.150000X0*%
%ADD32C,1.000000*%
%ADD33RoundRect,0.075000X-0.300000X0.075000X-0.300000X-0.075000X0.300000X-0.075000X0.300000X0.075000X0*%
%ADD34RoundRect,0.062500X-0.312500X0.062500X-0.312500X-0.062500X0.312500X-0.062500X0.312500X0.062500X0*%
%ADD35O,1.950000X0.950000*%
%ADD36O,2.150000X0.950000*%
%ADD37RoundRect,0.150000X0.700000X-0.150000X0.700000X0.150000X-0.700000X0.150000X-0.700000X-0.150000X0*%
%ADD38RoundRect,0.250000X1.100000X-0.250000X1.100000X0.250000X-1.100000X0.250000X-1.100000X-0.250000X0*%
%ADD39RoundRect,0.250000X-0.600000X0.600000X-0.600000X-0.600000X0.600000X-0.600000X0.600000X0.600000X0*%
%ADD40C,1.700000*%
%ADD41RoundRect,0.062500X-0.350000X-0.062500X0.350000X-0.062500X0.350000X0.062500X-0.350000X0.062500X0*%
%ADD42RoundRect,0.062500X-0.062500X-0.350000X0.062500X-0.350000X0.062500X0.350000X-0.062500X0.350000X0*%
%ADD43R,2.500000X2.500000*%
%ADD44RoundRect,0.225000X-0.225000X-0.250000X0.225000X-0.250000X0.225000X0.250000X-0.225000X0.250000X0*%
%ADD45RoundRect,0.075000X0.075000X0.175000X-0.075000X0.175000X-0.075000X-0.175000X0.075000X-0.175000X0*%
%ADD46RoundRect,0.250000X0.600000X-0.600000X0.600000X0.600000X-0.600000X0.600000X-0.600000X-0.600000X0*%
%ADD47R,1.700000X1.700000*%
%ADD48RoundRect,0.250000X-0.250000X-0.475000X0.250000X-0.475000X0.250000X0.475000X-0.250000X0.475000X0*%
G04 APERTURE END LIST*
D10*
%TO.C,U2*%
X187500000Y-83800000D02*
X187500000Y-84550000D01*
X186100000Y-84550000D01*
X186100000Y-83150000D01*
X186850000Y-83150000D01*
X187500000Y-83800000D01*
G36*
X187500000Y-83800000D02*
G01*
X187500000Y-84550000D01*
X186100000Y-84550000D01*
X186100000Y-83150000D01*
X186850000Y-83150000D01*
X187500000Y-83800000D01*
G37*
%TD*%
D11*
%TO.C,REF\u002A\u002A*%
X134500000Y-110500000D03*
D12*
X134500000Y-110500000D03*
%TD*%
D11*
%TO.C,REF\u002A\u002A*%
X193000000Y-110500000D03*
D12*
X193000000Y-110500000D03*
%TD*%
D11*
%TO.C,REF\u002A\u002A*%
X193000000Y-62000000D03*
D12*
X193000000Y-62000000D03*
%TD*%
D11*
%TO.C,REF\u002A\u002A*%
X134500000Y-62000000D03*
D12*
X134500000Y-62000000D03*
%TD*%
D13*
%TO.C,U2*%
X191100000Y-78500000D03*
X190250000Y-78500000D03*
X189400000Y-78500000D03*
X188550000Y-78500000D03*
X187700000Y-78500000D03*
X186850000Y-78500000D03*
X186000000Y-78500000D03*
X185150000Y-78500000D03*
X184300000Y-78500000D03*
X183450000Y-78500000D03*
X182600000Y-78500000D03*
X181750000Y-78500000D03*
X180900000Y-78500000D03*
X180050000Y-78500000D03*
X179200000Y-78500000D03*
D14*
X178150000Y-79550000D03*
X178150000Y-80400000D03*
X178150000Y-81250000D03*
X178150000Y-82100000D03*
X178150000Y-82950000D03*
X178150000Y-83800000D03*
X178150000Y-84650000D03*
X178150000Y-85500000D03*
X178150000Y-86350000D03*
X178150000Y-87200000D03*
X178150000Y-88050000D03*
X178150000Y-88900000D03*
X178150000Y-89750000D03*
X178150000Y-90600000D03*
X178150000Y-91450000D03*
D13*
X179200000Y-92500000D03*
X180050000Y-92500000D03*
X180900000Y-92500000D03*
X181750000Y-92500000D03*
X182600000Y-92500000D03*
X183450000Y-92500000D03*
X184300000Y-92500000D03*
X185150000Y-92500000D03*
X186000000Y-92500000D03*
X186850000Y-92500000D03*
X187700000Y-92500000D03*
X188550000Y-92500000D03*
X189400000Y-92500000D03*
X190250000Y-92500000D03*
X191100000Y-92500000D03*
D14*
X192150000Y-91450000D03*
X192150000Y-90600000D03*
X192150000Y-89750000D03*
X192150000Y-88900000D03*
X192150000Y-88050000D03*
X192150000Y-87200000D03*
X192150000Y-86350000D03*
X192150000Y-85500000D03*
X192150000Y-84650000D03*
X192150000Y-83800000D03*
X192150000Y-82950000D03*
X192150000Y-82100000D03*
X192150000Y-81250000D03*
X192150000Y-80400000D03*
X192150000Y-79550000D03*
D15*
X186800000Y-85500000D03*
X186800000Y-87150000D03*
X185150000Y-83850000D03*
X185150000Y-85500000D03*
X185150000Y-87150000D03*
X183500000Y-83850000D03*
X183500000Y-85500000D03*
X183500000Y-87150000D03*
D16*
X192150000Y-78500000D03*
X178150000Y-78500000D03*
X178150000Y-92500000D03*
X192150000Y-92500000D03*
%TD*%
D17*
%TO.C,D3*%
X148212500Y-94000000D03*
X149787500Y-94000000D03*
%TD*%
D18*
%TO.C,R7*%
X143675000Y-92000000D03*
X145325000Y-92000000D03*
%TD*%
%TO.C,R9*%
X152675000Y-94000000D03*
X154325000Y-94000000D03*
%TD*%
%TO.C,R8*%
X152675000Y-90500000D03*
X154325000Y-90500000D03*
%TD*%
D19*
%TO.C,R12*%
X153325000Y-105500000D03*
X151675000Y-105500000D03*
%TD*%
D20*
%TO.C,C12*%
X178000000Y-95225000D03*
X178000000Y-96775000D03*
%TD*%
D21*
%TO.C,R3*%
X144250000Y-105000000D03*
X144250000Y-106650000D03*
%TD*%
D22*
%TO.C,C6*%
X156250000Y-101450000D03*
X156250000Y-99550000D03*
%TD*%
D17*
%TO.C,D2*%
X148212500Y-90500000D03*
X149787500Y-90500000D03*
%TD*%
D23*
%TO.C,U3*%
X143000000Y-101350000D03*
X143000000Y-102650000D03*
X145000000Y-102000000D03*
%TD*%
D18*
%TO.C,R1*%
X158925000Y-100500000D03*
X160575000Y-100500000D03*
%TD*%
D24*
%TO.C,SW1*%
X189600000Y-72650000D03*
X189600000Y-66350000D03*
X193400000Y-72650000D03*
X193400000Y-66350000D03*
%TD*%
D25*
%TO.C,R4*%
X141000000Y-99325000D03*
X141000000Y-97675000D03*
%TD*%
D26*
%TO.C,F1*%
X188400000Y-107500000D03*
X185600000Y-107500000D03*
%TD*%
D27*
%TO.C,C10*%
X186275000Y-76000000D03*
X184725000Y-76000000D03*
%TD*%
D28*
%TO.C,Q1*%
X159937500Y-105450000D03*
X159937500Y-103550000D03*
X158062500Y-104500000D03*
%TD*%
D19*
%TO.C,R6*%
X182825000Y-95000000D03*
X181175000Y-95000000D03*
%TD*%
D29*
%TO.C,SW2*%
X168850000Y-93600000D03*
X175150000Y-93600000D03*
X168850000Y-97400000D03*
X175150000Y-97400000D03*
%TD*%
D30*
%TO.C,C3*%
X140950000Y-95000000D03*
X139050000Y-95000000D03*
%TD*%
D31*
%TO.C,U1*%
X161862500Y-96050000D03*
X161862500Y-97000000D03*
X161862500Y-97950000D03*
X164137500Y-97950000D03*
X164137500Y-96050000D03*
%TD*%
D32*
%TO.C,TP4*%
X137000000Y-75000000D03*
%TD*%
D33*
%TO.C,J2*%
X136375000Y-96600000D03*
D34*
X136375000Y-97100000D03*
D33*
X136375000Y-103700000D03*
D34*
X136375000Y-98900000D03*
X136375000Y-99400000D03*
X136375000Y-99900000D03*
X136375000Y-100400000D03*
X136375000Y-100900000D03*
X136375000Y-101400000D03*
X136375000Y-103200000D03*
X135125000Y-103150000D03*
X135125000Y-101650000D03*
X135125000Y-101150000D03*
X135125000Y-100650000D03*
X135125000Y-99650000D03*
X135125000Y-99150000D03*
X135125000Y-98650000D03*
X135125000Y-97150000D03*
D35*
X136200000Y-95700000D03*
D36*
X133000000Y-95700000D03*
D35*
X136200000Y-104600000D03*
D36*
X133000000Y-104600000D03*
%TD*%
D37*
%TO.C,J5*%
X190150000Y-102125000D03*
X190150000Y-100875000D03*
D38*
X193350000Y-103975000D03*
X193350000Y-99025000D03*
%TD*%
D39*
%TO.C,J_JTAG1*%
X163120000Y-81247500D03*
D40*
X163120000Y-83787500D03*
X160580000Y-81247500D03*
X160580000Y-83787500D03*
X158040000Y-81247500D03*
X158040000Y-83787500D03*
X155500000Y-81247500D03*
X155500000Y-83787500D03*
X152960000Y-81247500D03*
X152960000Y-83787500D03*
X150420000Y-81247500D03*
X150420000Y-83787500D03*
X147880000Y-81247500D03*
X147880000Y-83787500D03*
%TD*%
D41*
%TO.C,U5*%
X149437500Y-99125000D03*
X149437500Y-99625000D03*
X149437500Y-100125000D03*
X149437500Y-100625000D03*
X149437500Y-101125000D03*
D42*
X150375000Y-102062500D03*
X150875000Y-102062500D03*
X151375000Y-102062500D03*
X151875000Y-102062500D03*
X152375000Y-102062500D03*
D41*
X153312500Y-101125000D03*
X153312500Y-100625000D03*
X153312500Y-100125000D03*
X153312500Y-99625000D03*
X153312500Y-99125000D03*
D42*
X152375000Y-98187500D03*
X151875000Y-98187500D03*
X151375000Y-98187500D03*
X150875000Y-98187500D03*
X150375000Y-98187500D03*
D43*
X151375000Y-100125000D03*
%TD*%
D44*
%TO.C,C5*%
X139225000Y-92000000D03*
X140775000Y-92000000D03*
%TD*%
D22*
%TO.C,C7*%
X147000000Y-98950000D03*
X147000000Y-97050000D03*
%TD*%
D45*
%TO.C,U4*%
X174000000Y-73500000D03*
X173300000Y-73500000D03*
%TD*%
D32*
%TO.C,TP3*%
X149000000Y-75000000D03*
%TD*%
D46*
%TO.C,J_ProgUART0_1*%
X172955000Y-105252500D03*
D40*
X172955000Y-102712500D03*
X175495000Y-105252500D03*
X175495000Y-102712500D03*
X178035000Y-105252500D03*
X178035000Y-102712500D03*
%TD*%
D18*
%TO.C,R2*%
X143675000Y-95000000D03*
X145325000Y-95000000D03*
%TD*%
D47*
%TO.C,J4*%
X170650000Y-69775000D03*
D40*
X170650000Y-67235000D03*
X173190000Y-69775000D03*
X173190000Y-67235000D03*
X175730000Y-69775000D03*
X175730000Y-67235000D03*
X178270000Y-69775000D03*
X178270000Y-67235000D03*
X180810000Y-69775000D03*
X180810000Y-67235000D03*
X183350000Y-69775000D03*
X183350000Y-67235000D03*
%TD*%
D18*
%TO.C,R14*%
X164175000Y-101000000D03*
X165825000Y-101000000D03*
%TD*%
%TO.C,R13*%
X147000000Y-105500000D03*
X148650000Y-105500000D03*
%TD*%
D48*
%TO.C,C11*%
X189050000Y-76000000D03*
X190950000Y-76000000D03*
%TD*%
D30*
%TO.C,C4*%
X157450000Y-96500000D03*
X155550000Y-96500000D03*
%TD*%
%TO.C,C2*%
X163950000Y-91500000D03*
X162050000Y-91500000D03*
%TD*%
D32*
%TO.C,TP2*%
X145000000Y-75000000D03*
%TD*%
D18*
%TO.C,R11*%
X164175000Y-104000000D03*
X165825000Y-104000000D03*
%TD*%
%TO.C,R10*%
X193175000Y-76000000D03*
X194825000Y-76000000D03*
%TD*%
D47*
%TO.C,J3*%
X136030000Y-69775000D03*
D40*
X136030000Y-67235000D03*
X138570000Y-69775000D03*
X138570000Y-67235000D03*
X141110000Y-69775000D03*
X141110000Y-67235000D03*
X143650000Y-69775000D03*
X143650000Y-67235000D03*
X146190000Y-69775000D03*
X146190000Y-67235000D03*
X148730000Y-69775000D03*
X148730000Y-67235000D03*
X151270000Y-69775000D03*
X151270000Y-67235000D03*
X153810000Y-69775000D03*
X153810000Y-67235000D03*
X156350000Y-69775000D03*
X156350000Y-67235000D03*
X158890000Y-69775000D03*
X158890000Y-67235000D03*
X161430000Y-69775000D03*
X161430000Y-67235000D03*
X163970000Y-69775000D03*
X163970000Y-67235000D03*
%TD*%
D21*
%TO.C,R5*%
X141500000Y-105175000D03*
X141500000Y-106825000D03*
%TD*%
D32*
%TO.C,TP1*%
X141000000Y-75000000D03*
%TD*%
M02*
