%TF.GenerationSoftware,KiCad,Pcbnew,9.0.6*%
%TF.CreationDate,2026-01-12T13:11:15+01:00*%
%TF.ProjectId,IoT-Werkstatt_Band1,496f542d-5765-4726-9b73-746174745f42,rev?*%
%TF.SameCoordinates,Original*%
%TF.FileFunction,Soldermask,Bot*%
%TF.FilePolarity,Negative*%
%FSLAX46Y46*%
G04 Gerber Fmt 4.6, Leading zero omitted, Abs format (unit mm)*
G04 Created by KiCad (PCBNEW 9.0.6) date 2026-01-12 13:11:15*
%MOMM*%
%LPD*%
G01*
G04 APERTURE LIST*
G04 Aperture macros list*
%AMRoundRect*
0 Rectangle with rounded corners*
0 $1 Rounding radius*
0 $2 $3 $4 $5 $6 $7 $8 $9 X,Y pos of 4 corners*
0 Add a 4 corners polygon primitive as box body*
4,1,4,$2,$3,$4,$5,$6,$7,$8,$9,$2,$3,0*
0 Add four circle primitives for the rounded corners*
1,1,$1+$1,$2,$3*
1,1,$1+$1,$4,$5*
1,1,$1+$1,$6,$7*
1,1,$1+$1,$8,$9*
0 Add four rect primitives between the rounded corners*
20,1,$1+$1,$2,$3,$4,$5,0*
20,1,$1+$1,$4,$5,$6,$7,0*
20,1,$1+$1,$6,$7,$8,$9,0*
20,1,$1+$1,$8,$9,$2,$3,0*%
G04 Aperture macros list end*
%ADD10C,2.900000*%
%ADD11C,5.000000*%
%ADD12O,1.950000X0.950000*%
%ADD13O,2.150000X0.950000*%
%ADD14RoundRect,0.250000X-0.600000X0.600000X-0.600000X-0.600000X0.600000X-0.600000X0.600000X0.600000X0*%
%ADD15C,1.700000*%
%ADD16RoundRect,0.250000X0.600000X-0.600000X0.600000X0.600000X-0.600000X0.600000X-0.600000X-0.600000X0*%
%ADD17R,1.700000X1.700000*%
G04 APERTURE END LIST*
D10*
%TO.C,REF\u002A\u002A*%
X134500000Y-110500000D03*
D11*
X134500000Y-110500000D03*
%TD*%
D10*
%TO.C,REF\u002A\u002A*%
X193000000Y-110500000D03*
D11*
X193000000Y-110500000D03*
%TD*%
D10*
%TO.C,REF\u002A\u002A*%
X193000000Y-62000000D03*
D11*
X193000000Y-62000000D03*
%TD*%
D10*
%TO.C,REF\u002A\u002A*%
X134500000Y-62000000D03*
D11*
X134500000Y-62000000D03*
%TD*%
D12*
%TO.C,J2*%
X136200000Y-95700000D03*
D13*
X133000000Y-95700000D03*
D12*
X136200000Y-104600000D03*
D13*
X133000000Y-104600000D03*
%TD*%
D14*
%TO.C,J_JTAG1*%
X163120000Y-81247500D03*
D15*
X163120000Y-83787500D03*
X160580000Y-81247500D03*
X160580000Y-83787500D03*
X158040000Y-81247500D03*
X158040000Y-83787500D03*
X155500000Y-81247500D03*
X155500000Y-83787500D03*
X152960000Y-81247500D03*
X152960000Y-83787500D03*
X150420000Y-81247500D03*
X150420000Y-83787500D03*
X147880000Y-81247500D03*
X147880000Y-83787500D03*
%TD*%
D16*
%TO.C,J_ProgUART0_1*%
X172955000Y-105252500D03*
D15*
X172955000Y-102712500D03*
X175495000Y-105252500D03*
X175495000Y-102712500D03*
X178035000Y-105252500D03*
X178035000Y-102712500D03*
%TD*%
D17*
%TO.C,J4*%
X170650000Y-69775000D03*
D15*
X170650000Y-67235000D03*
X173190000Y-69775000D03*
X173190000Y-67235000D03*
X175730000Y-69775000D03*
X175730000Y-67235000D03*
X178270000Y-69775000D03*
X178270000Y-67235000D03*
X180810000Y-69775000D03*
X180810000Y-67235000D03*
X183350000Y-69775000D03*
X183350000Y-67235000D03*
%TD*%
D17*
%TO.C,J3*%
X136030000Y-69775000D03*
D15*
X136030000Y-67235000D03*
X138570000Y-69775000D03*
X138570000Y-67235000D03*
X141110000Y-69775000D03*
X141110000Y-67235000D03*
X143650000Y-69775000D03*
X143650000Y-67235000D03*
X146190000Y-69775000D03*
X146190000Y-67235000D03*
X148730000Y-69775000D03*
X148730000Y-67235000D03*
X151270000Y-69775000D03*
X151270000Y-67235000D03*
X153810000Y-69775000D03*
X153810000Y-67235000D03*
X156350000Y-69775000D03*
X156350000Y-67235000D03*
X158890000Y-69775000D03*
X158890000Y-67235000D03*
X161430000Y-69775000D03*
X161430000Y-67235000D03*
X163970000Y-69775000D03*
X163970000Y-67235000D03*
%TD*%
M02*
