%TF.GenerationSoftware,KiCad,Pcbnew,9.0.6*%
%TF.CreationDate,2026-01-12T13:11:15+01:00*%
%TF.ProjectId,IoT-Werkstatt_Band1,496f542d-5765-4726-9b73-746174745f42,rev?*%
%TF.SameCoordinates,Original*%
%TF.FileFunction,Legend,Top*%
%TF.FilePolarity,Positive*%
%FSLAX46Y46*%
G04 Gerber Fmt 4.6, Leading zero omitted, Abs format (unit mm)*
G04 Created by KiCad (PCBNEW 9.0.6) date 2026-01-12 13:11:15*
%MOMM*%
%LPD*%
G01*
G04 APERTURE LIST*
%ADD10C,0.150000*%
%ADD11C,0.127000*%
%ADD12C,0.200000*%
%ADD13C,0.120000*%
%ADD14C,0.160000*%
G04 APERTURE END LIST*
D10*
X138666666Y-111454819D02*
X138333333Y-110978628D01*
X138095238Y-111454819D02*
X138095238Y-110454819D01*
X138095238Y-110454819D02*
X138476190Y-110454819D01*
X138476190Y-110454819D02*
X138571428Y-110502438D01*
X138571428Y-110502438D02*
X138619047Y-110550057D01*
X138619047Y-110550057D02*
X138666666Y-110645295D01*
X138666666Y-110645295D02*
X138666666Y-110788152D01*
X138666666Y-110788152D02*
X138619047Y-110883390D01*
X138619047Y-110883390D02*
X138571428Y-110931009D01*
X138571428Y-110931009D02*
X138476190Y-110978628D01*
X138476190Y-110978628D02*
X138095238Y-110978628D01*
X139095238Y-110931009D02*
X139428571Y-110931009D01*
X139571428Y-111454819D02*
X139095238Y-111454819D01*
X139095238Y-111454819D02*
X139095238Y-110454819D01*
X139095238Y-110454819D02*
X139571428Y-110454819D01*
X140333333Y-110931009D02*
X140000000Y-110931009D01*
X140000000Y-111454819D02*
X140000000Y-110454819D01*
X140000000Y-110454819D02*
X140476190Y-110454819D01*
X141000000Y-110454819D02*
X141000000Y-110692914D01*
X140761905Y-110597676D02*
X141000000Y-110692914D01*
X141000000Y-110692914D02*
X141238095Y-110597676D01*
X140857143Y-110883390D02*
X141000000Y-110692914D01*
X141000000Y-110692914D02*
X141142857Y-110883390D01*
X141761905Y-110454819D02*
X141761905Y-110692914D01*
X141523810Y-110597676D02*
X141761905Y-110692914D01*
X141761905Y-110692914D02*
X142000000Y-110597676D01*
X141619048Y-110883390D02*
X141761905Y-110692914D01*
X141761905Y-110692914D02*
X141904762Y-110883390D01*
X186166666Y-111454819D02*
X185833333Y-110978628D01*
X185595238Y-111454819D02*
X185595238Y-110454819D01*
X185595238Y-110454819D02*
X185976190Y-110454819D01*
X185976190Y-110454819D02*
X186071428Y-110502438D01*
X186071428Y-110502438D02*
X186119047Y-110550057D01*
X186119047Y-110550057D02*
X186166666Y-110645295D01*
X186166666Y-110645295D02*
X186166666Y-110788152D01*
X186166666Y-110788152D02*
X186119047Y-110883390D01*
X186119047Y-110883390D02*
X186071428Y-110931009D01*
X186071428Y-110931009D02*
X185976190Y-110978628D01*
X185976190Y-110978628D02*
X185595238Y-110978628D01*
X186595238Y-110931009D02*
X186928571Y-110931009D01*
X187071428Y-111454819D02*
X186595238Y-111454819D01*
X186595238Y-111454819D02*
X186595238Y-110454819D01*
X186595238Y-110454819D02*
X187071428Y-110454819D01*
X187833333Y-110931009D02*
X187500000Y-110931009D01*
X187500000Y-111454819D02*
X187500000Y-110454819D01*
X187500000Y-110454819D02*
X187976190Y-110454819D01*
X188500000Y-110454819D02*
X188500000Y-110692914D01*
X188261905Y-110597676D02*
X188500000Y-110692914D01*
X188500000Y-110692914D02*
X188738095Y-110597676D01*
X188357143Y-110883390D02*
X188500000Y-110692914D01*
X188500000Y-110692914D02*
X188642857Y-110883390D01*
X189261905Y-110454819D02*
X189261905Y-110692914D01*
X189023810Y-110597676D02*
X189261905Y-110692914D01*
X189261905Y-110692914D02*
X189500000Y-110597676D01*
X189119048Y-110883390D02*
X189261905Y-110692914D01*
X189261905Y-110692914D02*
X189404762Y-110883390D01*
X186666666Y-62454819D02*
X186333333Y-61978628D01*
X186095238Y-62454819D02*
X186095238Y-61454819D01*
X186095238Y-61454819D02*
X186476190Y-61454819D01*
X186476190Y-61454819D02*
X186571428Y-61502438D01*
X186571428Y-61502438D02*
X186619047Y-61550057D01*
X186619047Y-61550057D02*
X186666666Y-61645295D01*
X186666666Y-61645295D02*
X186666666Y-61788152D01*
X186666666Y-61788152D02*
X186619047Y-61883390D01*
X186619047Y-61883390D02*
X186571428Y-61931009D01*
X186571428Y-61931009D02*
X186476190Y-61978628D01*
X186476190Y-61978628D02*
X186095238Y-61978628D01*
X187095238Y-61931009D02*
X187428571Y-61931009D01*
X187571428Y-62454819D02*
X187095238Y-62454819D01*
X187095238Y-62454819D02*
X187095238Y-61454819D01*
X187095238Y-61454819D02*
X187571428Y-61454819D01*
X188333333Y-61931009D02*
X188000000Y-61931009D01*
X188000000Y-62454819D02*
X188000000Y-61454819D01*
X188000000Y-61454819D02*
X188476190Y-61454819D01*
X189000000Y-61454819D02*
X189000000Y-61692914D01*
X188761905Y-61597676D02*
X189000000Y-61692914D01*
X189000000Y-61692914D02*
X189238095Y-61597676D01*
X188857143Y-61883390D02*
X189000000Y-61692914D01*
X189000000Y-61692914D02*
X189142857Y-61883390D01*
X189761905Y-61454819D02*
X189761905Y-61692914D01*
X189523810Y-61597676D02*
X189761905Y-61692914D01*
X189761905Y-61692914D02*
X190000000Y-61597676D01*
X189619048Y-61883390D02*
X189761905Y-61692914D01*
X189761905Y-61692914D02*
X189904762Y-61883390D01*
X138166666Y-62454819D02*
X137833333Y-61978628D01*
X137595238Y-62454819D02*
X137595238Y-61454819D01*
X137595238Y-61454819D02*
X137976190Y-61454819D01*
X137976190Y-61454819D02*
X138071428Y-61502438D01*
X138071428Y-61502438D02*
X138119047Y-61550057D01*
X138119047Y-61550057D02*
X138166666Y-61645295D01*
X138166666Y-61645295D02*
X138166666Y-61788152D01*
X138166666Y-61788152D02*
X138119047Y-61883390D01*
X138119047Y-61883390D02*
X138071428Y-61931009D01*
X138071428Y-61931009D02*
X137976190Y-61978628D01*
X137976190Y-61978628D02*
X137595238Y-61978628D01*
X138595238Y-61931009D02*
X138928571Y-61931009D01*
X139071428Y-62454819D02*
X138595238Y-62454819D01*
X138595238Y-62454819D02*
X138595238Y-61454819D01*
X138595238Y-61454819D02*
X139071428Y-61454819D01*
X139833333Y-61931009D02*
X139500000Y-61931009D01*
X139500000Y-62454819D02*
X139500000Y-61454819D01*
X139500000Y-61454819D02*
X139976190Y-61454819D01*
X140500000Y-61454819D02*
X140500000Y-61692914D01*
X140261905Y-61597676D02*
X140500000Y-61692914D01*
X140500000Y-61692914D02*
X140738095Y-61597676D01*
X140357143Y-61883390D02*
X140500000Y-61692914D01*
X140500000Y-61692914D02*
X140642857Y-61883390D01*
X141261905Y-61454819D02*
X141261905Y-61692914D01*
X141023810Y-61597676D02*
X141261905Y-61692914D01*
X141261905Y-61692914D02*
X141500000Y-61597676D01*
X141119048Y-61883390D02*
X141261905Y-61692914D01*
X141261905Y-61692914D02*
X141404762Y-61883390D01*
X175454819Y-79761904D02*
X176264342Y-79761904D01*
X176264342Y-79761904D02*
X176359580Y-79714285D01*
X176359580Y-79714285D02*
X176407200Y-79666666D01*
X176407200Y-79666666D02*
X176454819Y-79571428D01*
X176454819Y-79571428D02*
X176454819Y-79380952D01*
X176454819Y-79380952D02*
X176407200Y-79285714D01*
X176407200Y-79285714D02*
X176359580Y-79238095D01*
X176359580Y-79238095D02*
X176264342Y-79190476D01*
X176264342Y-79190476D02*
X175454819Y-79190476D01*
X175550057Y-78761904D02*
X175502438Y-78714285D01*
X175502438Y-78714285D02*
X175454819Y-78619047D01*
X175454819Y-78619047D02*
X175454819Y-78380952D01*
X175454819Y-78380952D02*
X175502438Y-78285714D01*
X175502438Y-78285714D02*
X175550057Y-78238095D01*
X175550057Y-78238095D02*
X175645295Y-78190476D01*
X175645295Y-78190476D02*
X175740533Y-78190476D01*
X175740533Y-78190476D02*
X175883390Y-78238095D01*
X175883390Y-78238095D02*
X176454819Y-78809523D01*
X176454819Y-78809523D02*
X176454819Y-78190476D01*
X148261905Y-93024819D02*
X148261905Y-92024819D01*
X148261905Y-92024819D02*
X148500000Y-92024819D01*
X148500000Y-92024819D02*
X148642857Y-92072438D01*
X148642857Y-92072438D02*
X148738095Y-92167676D01*
X148738095Y-92167676D02*
X148785714Y-92262914D01*
X148785714Y-92262914D02*
X148833333Y-92453390D01*
X148833333Y-92453390D02*
X148833333Y-92596247D01*
X148833333Y-92596247D02*
X148785714Y-92786723D01*
X148785714Y-92786723D02*
X148738095Y-92881961D01*
X148738095Y-92881961D02*
X148642857Y-92977200D01*
X148642857Y-92977200D02*
X148500000Y-93024819D01*
X148500000Y-93024819D02*
X148261905Y-93024819D01*
X149166667Y-92024819D02*
X149785714Y-92024819D01*
X149785714Y-92024819D02*
X149452381Y-92405771D01*
X149452381Y-92405771D02*
X149595238Y-92405771D01*
X149595238Y-92405771D02*
X149690476Y-92453390D01*
X149690476Y-92453390D02*
X149738095Y-92501009D01*
X149738095Y-92501009D02*
X149785714Y-92596247D01*
X149785714Y-92596247D02*
X149785714Y-92834342D01*
X149785714Y-92834342D02*
X149738095Y-92929580D01*
X149738095Y-92929580D02*
X149690476Y-92977200D01*
X149690476Y-92977200D02*
X149595238Y-93024819D01*
X149595238Y-93024819D02*
X149309524Y-93024819D01*
X149309524Y-93024819D02*
X149214286Y-92977200D01*
X149214286Y-92977200D02*
X149166667Y-92929580D01*
X144333333Y-91024819D02*
X144000000Y-90548628D01*
X143761905Y-91024819D02*
X143761905Y-90024819D01*
X143761905Y-90024819D02*
X144142857Y-90024819D01*
X144142857Y-90024819D02*
X144238095Y-90072438D01*
X144238095Y-90072438D02*
X144285714Y-90120057D01*
X144285714Y-90120057D02*
X144333333Y-90215295D01*
X144333333Y-90215295D02*
X144333333Y-90358152D01*
X144333333Y-90358152D02*
X144285714Y-90453390D01*
X144285714Y-90453390D02*
X144238095Y-90501009D01*
X144238095Y-90501009D02*
X144142857Y-90548628D01*
X144142857Y-90548628D02*
X143761905Y-90548628D01*
X144666667Y-90024819D02*
X145333333Y-90024819D01*
X145333333Y-90024819D02*
X144904762Y-91024819D01*
X153333333Y-93024819D02*
X153000000Y-92548628D01*
X152761905Y-93024819D02*
X152761905Y-92024819D01*
X152761905Y-92024819D02*
X153142857Y-92024819D01*
X153142857Y-92024819D02*
X153238095Y-92072438D01*
X153238095Y-92072438D02*
X153285714Y-92120057D01*
X153285714Y-92120057D02*
X153333333Y-92215295D01*
X153333333Y-92215295D02*
X153333333Y-92358152D01*
X153333333Y-92358152D02*
X153285714Y-92453390D01*
X153285714Y-92453390D02*
X153238095Y-92501009D01*
X153238095Y-92501009D02*
X153142857Y-92548628D01*
X153142857Y-92548628D02*
X152761905Y-92548628D01*
X153809524Y-93024819D02*
X154000000Y-93024819D01*
X154000000Y-93024819D02*
X154095238Y-92977200D01*
X154095238Y-92977200D02*
X154142857Y-92929580D01*
X154142857Y-92929580D02*
X154238095Y-92786723D01*
X154238095Y-92786723D02*
X154285714Y-92596247D01*
X154285714Y-92596247D02*
X154285714Y-92215295D01*
X154285714Y-92215295D02*
X154238095Y-92120057D01*
X154238095Y-92120057D02*
X154190476Y-92072438D01*
X154190476Y-92072438D02*
X154095238Y-92024819D01*
X154095238Y-92024819D02*
X153904762Y-92024819D01*
X153904762Y-92024819D02*
X153809524Y-92072438D01*
X153809524Y-92072438D02*
X153761905Y-92120057D01*
X153761905Y-92120057D02*
X153714286Y-92215295D01*
X153714286Y-92215295D02*
X153714286Y-92453390D01*
X153714286Y-92453390D02*
X153761905Y-92548628D01*
X153761905Y-92548628D02*
X153809524Y-92596247D01*
X153809524Y-92596247D02*
X153904762Y-92643866D01*
X153904762Y-92643866D02*
X154095238Y-92643866D01*
X154095238Y-92643866D02*
X154190476Y-92596247D01*
X154190476Y-92596247D02*
X154238095Y-92548628D01*
X154238095Y-92548628D02*
X154285714Y-92453390D01*
X153333333Y-89524819D02*
X153000000Y-89048628D01*
X152761905Y-89524819D02*
X152761905Y-88524819D01*
X152761905Y-88524819D02*
X153142857Y-88524819D01*
X153142857Y-88524819D02*
X153238095Y-88572438D01*
X153238095Y-88572438D02*
X153285714Y-88620057D01*
X153285714Y-88620057D02*
X153333333Y-88715295D01*
X153333333Y-88715295D02*
X153333333Y-88858152D01*
X153333333Y-88858152D02*
X153285714Y-88953390D01*
X153285714Y-88953390D02*
X153238095Y-89001009D01*
X153238095Y-89001009D02*
X153142857Y-89048628D01*
X153142857Y-89048628D02*
X152761905Y-89048628D01*
X153904762Y-88953390D02*
X153809524Y-88905771D01*
X153809524Y-88905771D02*
X153761905Y-88858152D01*
X153761905Y-88858152D02*
X153714286Y-88762914D01*
X153714286Y-88762914D02*
X153714286Y-88715295D01*
X153714286Y-88715295D02*
X153761905Y-88620057D01*
X153761905Y-88620057D02*
X153809524Y-88572438D01*
X153809524Y-88572438D02*
X153904762Y-88524819D01*
X153904762Y-88524819D02*
X154095238Y-88524819D01*
X154095238Y-88524819D02*
X154190476Y-88572438D01*
X154190476Y-88572438D02*
X154238095Y-88620057D01*
X154238095Y-88620057D02*
X154285714Y-88715295D01*
X154285714Y-88715295D02*
X154285714Y-88762914D01*
X154285714Y-88762914D02*
X154238095Y-88858152D01*
X154238095Y-88858152D02*
X154190476Y-88905771D01*
X154190476Y-88905771D02*
X154095238Y-88953390D01*
X154095238Y-88953390D02*
X153904762Y-88953390D01*
X153904762Y-88953390D02*
X153809524Y-89001009D01*
X153809524Y-89001009D02*
X153761905Y-89048628D01*
X153761905Y-89048628D02*
X153714286Y-89143866D01*
X153714286Y-89143866D02*
X153714286Y-89334342D01*
X153714286Y-89334342D02*
X153761905Y-89429580D01*
X153761905Y-89429580D02*
X153809524Y-89477200D01*
X153809524Y-89477200D02*
X153904762Y-89524819D01*
X153904762Y-89524819D02*
X154095238Y-89524819D01*
X154095238Y-89524819D02*
X154190476Y-89477200D01*
X154190476Y-89477200D02*
X154238095Y-89429580D01*
X154238095Y-89429580D02*
X154285714Y-89334342D01*
X154285714Y-89334342D02*
X154285714Y-89143866D01*
X154285714Y-89143866D02*
X154238095Y-89048628D01*
X154238095Y-89048628D02*
X154190476Y-89001009D01*
X154190476Y-89001009D02*
X154095238Y-88953390D01*
X151857142Y-107384819D02*
X151523809Y-106908628D01*
X151285714Y-107384819D02*
X151285714Y-106384819D01*
X151285714Y-106384819D02*
X151666666Y-106384819D01*
X151666666Y-106384819D02*
X151761904Y-106432438D01*
X151761904Y-106432438D02*
X151809523Y-106480057D01*
X151809523Y-106480057D02*
X151857142Y-106575295D01*
X151857142Y-106575295D02*
X151857142Y-106718152D01*
X151857142Y-106718152D02*
X151809523Y-106813390D01*
X151809523Y-106813390D02*
X151761904Y-106861009D01*
X151761904Y-106861009D02*
X151666666Y-106908628D01*
X151666666Y-106908628D02*
X151285714Y-106908628D01*
X152809523Y-107384819D02*
X152238095Y-107384819D01*
X152523809Y-107384819D02*
X152523809Y-106384819D01*
X152523809Y-106384819D02*
X152428571Y-106527676D01*
X152428571Y-106527676D02*
X152333333Y-106622914D01*
X152333333Y-106622914D02*
X152238095Y-106670533D01*
X153190476Y-106480057D02*
X153238095Y-106432438D01*
X153238095Y-106432438D02*
X153333333Y-106384819D01*
X153333333Y-106384819D02*
X153571428Y-106384819D01*
X153571428Y-106384819D02*
X153666666Y-106432438D01*
X153666666Y-106432438D02*
X153714285Y-106480057D01*
X153714285Y-106480057D02*
X153761904Y-106575295D01*
X153761904Y-106575295D02*
X153761904Y-106670533D01*
X153761904Y-106670533D02*
X153714285Y-106813390D01*
X153714285Y-106813390D02*
X153142857Y-107384819D01*
X153142857Y-107384819D02*
X153761904Y-107384819D01*
X179789580Y-96642857D02*
X179837200Y-96690476D01*
X179837200Y-96690476D02*
X179884819Y-96833333D01*
X179884819Y-96833333D02*
X179884819Y-96928571D01*
X179884819Y-96928571D02*
X179837200Y-97071428D01*
X179837200Y-97071428D02*
X179741961Y-97166666D01*
X179741961Y-97166666D02*
X179646723Y-97214285D01*
X179646723Y-97214285D02*
X179456247Y-97261904D01*
X179456247Y-97261904D02*
X179313390Y-97261904D01*
X179313390Y-97261904D02*
X179122914Y-97214285D01*
X179122914Y-97214285D02*
X179027676Y-97166666D01*
X179027676Y-97166666D02*
X178932438Y-97071428D01*
X178932438Y-97071428D02*
X178884819Y-96928571D01*
X178884819Y-96928571D02*
X178884819Y-96833333D01*
X178884819Y-96833333D02*
X178932438Y-96690476D01*
X178932438Y-96690476D02*
X178980057Y-96642857D01*
X179884819Y-95690476D02*
X179884819Y-96261904D01*
X179884819Y-95976190D02*
X178884819Y-95976190D01*
X178884819Y-95976190D02*
X179027676Y-96071428D01*
X179027676Y-96071428D02*
X179122914Y-96166666D01*
X179122914Y-96166666D02*
X179170533Y-96261904D01*
X178980057Y-95309523D02*
X178932438Y-95261904D01*
X178932438Y-95261904D02*
X178884819Y-95166666D01*
X178884819Y-95166666D02*
X178884819Y-94928571D01*
X178884819Y-94928571D02*
X178932438Y-94833333D01*
X178932438Y-94833333D02*
X178980057Y-94785714D01*
X178980057Y-94785714D02*
X179075295Y-94738095D01*
X179075295Y-94738095D02*
X179170533Y-94738095D01*
X179170533Y-94738095D02*
X179313390Y-94785714D01*
X179313390Y-94785714D02*
X179884819Y-95357142D01*
X179884819Y-95357142D02*
X179884819Y-94738095D01*
X146134819Y-105991666D02*
X145658628Y-106324999D01*
X146134819Y-106563094D02*
X145134819Y-106563094D01*
X145134819Y-106563094D02*
X145134819Y-106182142D01*
X145134819Y-106182142D02*
X145182438Y-106086904D01*
X145182438Y-106086904D02*
X145230057Y-106039285D01*
X145230057Y-106039285D02*
X145325295Y-105991666D01*
X145325295Y-105991666D02*
X145468152Y-105991666D01*
X145468152Y-105991666D02*
X145563390Y-106039285D01*
X145563390Y-106039285D02*
X145611009Y-106086904D01*
X145611009Y-106086904D02*
X145658628Y-106182142D01*
X145658628Y-106182142D02*
X145658628Y-106563094D01*
X145134819Y-105658332D02*
X145134819Y-105039285D01*
X145134819Y-105039285D02*
X145515771Y-105372618D01*
X145515771Y-105372618D02*
X145515771Y-105229761D01*
X145515771Y-105229761D02*
X145563390Y-105134523D01*
X145563390Y-105134523D02*
X145611009Y-105086904D01*
X145611009Y-105086904D02*
X145706247Y-105039285D01*
X145706247Y-105039285D02*
X145944342Y-105039285D01*
X145944342Y-105039285D02*
X146039580Y-105086904D01*
X146039580Y-105086904D02*
X146087200Y-105134523D01*
X146087200Y-105134523D02*
X146134819Y-105229761D01*
X146134819Y-105229761D02*
X146134819Y-105515475D01*
X146134819Y-105515475D02*
X146087200Y-105610713D01*
X146087200Y-105610713D02*
X146039580Y-105658332D01*
X154929580Y-100666666D02*
X154977200Y-100714285D01*
X154977200Y-100714285D02*
X155024819Y-100857142D01*
X155024819Y-100857142D02*
X155024819Y-100952380D01*
X155024819Y-100952380D02*
X154977200Y-101095237D01*
X154977200Y-101095237D02*
X154881961Y-101190475D01*
X154881961Y-101190475D02*
X154786723Y-101238094D01*
X154786723Y-101238094D02*
X154596247Y-101285713D01*
X154596247Y-101285713D02*
X154453390Y-101285713D01*
X154453390Y-101285713D02*
X154262914Y-101238094D01*
X154262914Y-101238094D02*
X154167676Y-101190475D01*
X154167676Y-101190475D02*
X154072438Y-101095237D01*
X154072438Y-101095237D02*
X154024819Y-100952380D01*
X154024819Y-100952380D02*
X154024819Y-100857142D01*
X154024819Y-100857142D02*
X154072438Y-100714285D01*
X154072438Y-100714285D02*
X154120057Y-100666666D01*
X154024819Y-99809523D02*
X154024819Y-99999999D01*
X154024819Y-99999999D02*
X154072438Y-100095237D01*
X154072438Y-100095237D02*
X154120057Y-100142856D01*
X154120057Y-100142856D02*
X154262914Y-100238094D01*
X154262914Y-100238094D02*
X154453390Y-100285713D01*
X154453390Y-100285713D02*
X154834342Y-100285713D01*
X154834342Y-100285713D02*
X154929580Y-100238094D01*
X154929580Y-100238094D02*
X154977200Y-100190475D01*
X154977200Y-100190475D02*
X155024819Y-100095237D01*
X155024819Y-100095237D02*
X155024819Y-99904761D01*
X155024819Y-99904761D02*
X154977200Y-99809523D01*
X154977200Y-99809523D02*
X154929580Y-99761904D01*
X154929580Y-99761904D02*
X154834342Y-99714285D01*
X154834342Y-99714285D02*
X154596247Y-99714285D01*
X154596247Y-99714285D02*
X154501009Y-99761904D01*
X154501009Y-99761904D02*
X154453390Y-99809523D01*
X154453390Y-99809523D02*
X154405771Y-99904761D01*
X154405771Y-99904761D02*
X154405771Y-100095237D01*
X154405771Y-100095237D02*
X154453390Y-100190475D01*
X154453390Y-100190475D02*
X154501009Y-100238094D01*
X154501009Y-100238094D02*
X154596247Y-100285713D01*
X148261905Y-89524819D02*
X148261905Y-88524819D01*
X148261905Y-88524819D02*
X148500000Y-88524819D01*
X148500000Y-88524819D02*
X148642857Y-88572438D01*
X148642857Y-88572438D02*
X148738095Y-88667676D01*
X148738095Y-88667676D02*
X148785714Y-88762914D01*
X148785714Y-88762914D02*
X148833333Y-88953390D01*
X148833333Y-88953390D02*
X148833333Y-89096247D01*
X148833333Y-89096247D02*
X148785714Y-89286723D01*
X148785714Y-89286723D02*
X148738095Y-89381961D01*
X148738095Y-89381961D02*
X148642857Y-89477200D01*
X148642857Y-89477200D02*
X148500000Y-89524819D01*
X148500000Y-89524819D02*
X148261905Y-89524819D01*
X149214286Y-88620057D02*
X149261905Y-88572438D01*
X149261905Y-88572438D02*
X149357143Y-88524819D01*
X149357143Y-88524819D02*
X149595238Y-88524819D01*
X149595238Y-88524819D02*
X149690476Y-88572438D01*
X149690476Y-88572438D02*
X149738095Y-88620057D01*
X149738095Y-88620057D02*
X149785714Y-88715295D01*
X149785714Y-88715295D02*
X149785714Y-88810533D01*
X149785714Y-88810533D02*
X149738095Y-88953390D01*
X149738095Y-88953390D02*
X149166667Y-89524819D01*
X149166667Y-89524819D02*
X149785714Y-89524819D01*
X143188095Y-99204819D02*
X143188095Y-100014342D01*
X143188095Y-100014342D02*
X143235714Y-100109580D01*
X143235714Y-100109580D02*
X143283333Y-100157200D01*
X143283333Y-100157200D02*
X143378571Y-100204819D01*
X143378571Y-100204819D02*
X143569047Y-100204819D01*
X143569047Y-100204819D02*
X143664285Y-100157200D01*
X143664285Y-100157200D02*
X143711904Y-100109580D01*
X143711904Y-100109580D02*
X143759523Y-100014342D01*
X143759523Y-100014342D02*
X143759523Y-99204819D01*
X144140476Y-99204819D02*
X144759523Y-99204819D01*
X144759523Y-99204819D02*
X144426190Y-99585771D01*
X144426190Y-99585771D02*
X144569047Y-99585771D01*
X144569047Y-99585771D02*
X144664285Y-99633390D01*
X144664285Y-99633390D02*
X144711904Y-99681009D01*
X144711904Y-99681009D02*
X144759523Y-99776247D01*
X144759523Y-99776247D02*
X144759523Y-100014342D01*
X144759523Y-100014342D02*
X144711904Y-100109580D01*
X144711904Y-100109580D02*
X144664285Y-100157200D01*
X144664285Y-100157200D02*
X144569047Y-100204819D01*
X144569047Y-100204819D02*
X144283333Y-100204819D01*
X144283333Y-100204819D02*
X144188095Y-100157200D01*
X144188095Y-100157200D02*
X144140476Y-100109580D01*
X159583333Y-99524819D02*
X159250000Y-99048628D01*
X159011905Y-99524819D02*
X159011905Y-98524819D01*
X159011905Y-98524819D02*
X159392857Y-98524819D01*
X159392857Y-98524819D02*
X159488095Y-98572438D01*
X159488095Y-98572438D02*
X159535714Y-98620057D01*
X159535714Y-98620057D02*
X159583333Y-98715295D01*
X159583333Y-98715295D02*
X159583333Y-98858152D01*
X159583333Y-98858152D02*
X159535714Y-98953390D01*
X159535714Y-98953390D02*
X159488095Y-99001009D01*
X159488095Y-99001009D02*
X159392857Y-99048628D01*
X159392857Y-99048628D02*
X159011905Y-99048628D01*
X160535714Y-99524819D02*
X159964286Y-99524819D01*
X160250000Y-99524819D02*
X160250000Y-98524819D01*
X160250000Y-98524819D02*
X160154762Y-98667676D01*
X160154762Y-98667676D02*
X160059524Y-98762914D01*
X160059524Y-98762914D02*
X159964286Y-98810533D01*
X188157200Y-70833332D02*
X188204819Y-70690475D01*
X188204819Y-70690475D02*
X188204819Y-70452380D01*
X188204819Y-70452380D02*
X188157200Y-70357142D01*
X188157200Y-70357142D02*
X188109580Y-70309523D01*
X188109580Y-70309523D02*
X188014342Y-70261904D01*
X188014342Y-70261904D02*
X187919104Y-70261904D01*
X187919104Y-70261904D02*
X187823866Y-70309523D01*
X187823866Y-70309523D02*
X187776247Y-70357142D01*
X187776247Y-70357142D02*
X187728628Y-70452380D01*
X187728628Y-70452380D02*
X187681009Y-70642856D01*
X187681009Y-70642856D02*
X187633390Y-70738094D01*
X187633390Y-70738094D02*
X187585771Y-70785713D01*
X187585771Y-70785713D02*
X187490533Y-70833332D01*
X187490533Y-70833332D02*
X187395295Y-70833332D01*
X187395295Y-70833332D02*
X187300057Y-70785713D01*
X187300057Y-70785713D02*
X187252438Y-70738094D01*
X187252438Y-70738094D02*
X187204819Y-70642856D01*
X187204819Y-70642856D02*
X187204819Y-70404761D01*
X187204819Y-70404761D02*
X187252438Y-70261904D01*
X187204819Y-69928570D02*
X188204819Y-69690475D01*
X188204819Y-69690475D02*
X187490533Y-69499999D01*
X187490533Y-69499999D02*
X188204819Y-69309523D01*
X188204819Y-69309523D02*
X187204819Y-69071428D01*
X188204819Y-68166666D02*
X188204819Y-68738094D01*
X188204819Y-68452380D02*
X187204819Y-68452380D01*
X187204819Y-68452380D02*
X187347676Y-68547618D01*
X187347676Y-68547618D02*
X187442914Y-68642856D01*
X187442914Y-68642856D02*
X187490533Y-68738094D01*
X140024819Y-98666666D02*
X139548628Y-98999999D01*
X140024819Y-99238094D02*
X139024819Y-99238094D01*
X139024819Y-99238094D02*
X139024819Y-98857142D01*
X139024819Y-98857142D02*
X139072438Y-98761904D01*
X139072438Y-98761904D02*
X139120057Y-98714285D01*
X139120057Y-98714285D02*
X139215295Y-98666666D01*
X139215295Y-98666666D02*
X139358152Y-98666666D01*
X139358152Y-98666666D02*
X139453390Y-98714285D01*
X139453390Y-98714285D02*
X139501009Y-98761904D01*
X139501009Y-98761904D02*
X139548628Y-98857142D01*
X139548628Y-98857142D02*
X139548628Y-99238094D01*
X139358152Y-97809523D02*
X140024819Y-97809523D01*
X138977200Y-98047618D02*
X139691485Y-98285713D01*
X139691485Y-98285713D02*
X139691485Y-97666666D01*
X186666666Y-109261009D02*
X186333333Y-109261009D01*
X186333333Y-109784819D02*
X186333333Y-108784819D01*
X186333333Y-108784819D02*
X186809523Y-108784819D01*
X187714285Y-109784819D02*
X187142857Y-109784819D01*
X187428571Y-109784819D02*
X187428571Y-108784819D01*
X187428571Y-108784819D02*
X187333333Y-108927676D01*
X187333333Y-108927676D02*
X187238095Y-109022914D01*
X187238095Y-109022914D02*
X187142857Y-109070533D01*
X184857142Y-77789580D02*
X184809523Y-77837200D01*
X184809523Y-77837200D02*
X184666666Y-77884819D01*
X184666666Y-77884819D02*
X184571428Y-77884819D01*
X184571428Y-77884819D02*
X184428571Y-77837200D01*
X184428571Y-77837200D02*
X184333333Y-77741961D01*
X184333333Y-77741961D02*
X184285714Y-77646723D01*
X184285714Y-77646723D02*
X184238095Y-77456247D01*
X184238095Y-77456247D02*
X184238095Y-77313390D01*
X184238095Y-77313390D02*
X184285714Y-77122914D01*
X184285714Y-77122914D02*
X184333333Y-77027676D01*
X184333333Y-77027676D02*
X184428571Y-76932438D01*
X184428571Y-76932438D02*
X184571428Y-76884819D01*
X184571428Y-76884819D02*
X184666666Y-76884819D01*
X184666666Y-76884819D02*
X184809523Y-76932438D01*
X184809523Y-76932438D02*
X184857142Y-76980057D01*
X185809523Y-77884819D02*
X185238095Y-77884819D01*
X185523809Y-77884819D02*
X185523809Y-76884819D01*
X185523809Y-76884819D02*
X185428571Y-77027676D01*
X185428571Y-77027676D02*
X185333333Y-77122914D01*
X185333333Y-77122914D02*
X185238095Y-77170533D01*
X186428571Y-76884819D02*
X186523809Y-76884819D01*
X186523809Y-76884819D02*
X186619047Y-76932438D01*
X186619047Y-76932438D02*
X186666666Y-76980057D01*
X186666666Y-76980057D02*
X186714285Y-77075295D01*
X186714285Y-77075295D02*
X186761904Y-77265771D01*
X186761904Y-77265771D02*
X186761904Y-77503866D01*
X186761904Y-77503866D02*
X186714285Y-77694342D01*
X186714285Y-77694342D02*
X186666666Y-77789580D01*
X186666666Y-77789580D02*
X186619047Y-77837200D01*
X186619047Y-77837200D02*
X186523809Y-77884819D01*
X186523809Y-77884819D02*
X186428571Y-77884819D01*
X186428571Y-77884819D02*
X186333333Y-77837200D01*
X186333333Y-77837200D02*
X186285714Y-77789580D01*
X186285714Y-77789580D02*
X186238095Y-77694342D01*
X186238095Y-77694342D02*
X186190476Y-77503866D01*
X186190476Y-77503866D02*
X186190476Y-77265771D01*
X186190476Y-77265771D02*
X186238095Y-77075295D01*
X186238095Y-77075295D02*
X186285714Y-76980057D01*
X186285714Y-76980057D02*
X186333333Y-76932438D01*
X186333333Y-76932438D02*
X186428571Y-76884819D01*
X158904761Y-107450057D02*
X158809523Y-107402438D01*
X158809523Y-107402438D02*
X158714285Y-107307200D01*
X158714285Y-107307200D02*
X158571428Y-107164342D01*
X158571428Y-107164342D02*
X158476190Y-107116723D01*
X158476190Y-107116723D02*
X158380952Y-107116723D01*
X158428571Y-107354819D02*
X158333333Y-107307200D01*
X158333333Y-107307200D02*
X158238095Y-107211961D01*
X158238095Y-107211961D02*
X158190476Y-107021485D01*
X158190476Y-107021485D02*
X158190476Y-106688152D01*
X158190476Y-106688152D02*
X158238095Y-106497676D01*
X158238095Y-106497676D02*
X158333333Y-106402438D01*
X158333333Y-106402438D02*
X158428571Y-106354819D01*
X158428571Y-106354819D02*
X158619047Y-106354819D01*
X158619047Y-106354819D02*
X158714285Y-106402438D01*
X158714285Y-106402438D02*
X158809523Y-106497676D01*
X158809523Y-106497676D02*
X158857142Y-106688152D01*
X158857142Y-106688152D02*
X158857142Y-107021485D01*
X158857142Y-107021485D02*
X158809523Y-107211961D01*
X158809523Y-107211961D02*
X158714285Y-107307200D01*
X158714285Y-107307200D02*
X158619047Y-107354819D01*
X158619047Y-107354819D02*
X158428571Y-107354819D01*
X159809523Y-107354819D02*
X159238095Y-107354819D01*
X159523809Y-107354819D02*
X159523809Y-106354819D01*
X159523809Y-106354819D02*
X159428571Y-106497676D01*
X159428571Y-106497676D02*
X159333333Y-106592914D01*
X159333333Y-106592914D02*
X159238095Y-106640533D01*
X181833333Y-96884819D02*
X181500000Y-96408628D01*
X181261905Y-96884819D02*
X181261905Y-95884819D01*
X181261905Y-95884819D02*
X181642857Y-95884819D01*
X181642857Y-95884819D02*
X181738095Y-95932438D01*
X181738095Y-95932438D02*
X181785714Y-95980057D01*
X181785714Y-95980057D02*
X181833333Y-96075295D01*
X181833333Y-96075295D02*
X181833333Y-96218152D01*
X181833333Y-96218152D02*
X181785714Y-96313390D01*
X181785714Y-96313390D02*
X181738095Y-96361009D01*
X181738095Y-96361009D02*
X181642857Y-96408628D01*
X181642857Y-96408628D02*
X181261905Y-96408628D01*
X182690476Y-95884819D02*
X182500000Y-95884819D01*
X182500000Y-95884819D02*
X182404762Y-95932438D01*
X182404762Y-95932438D02*
X182357143Y-95980057D01*
X182357143Y-95980057D02*
X182261905Y-96122914D01*
X182261905Y-96122914D02*
X182214286Y-96313390D01*
X182214286Y-96313390D02*
X182214286Y-96694342D01*
X182214286Y-96694342D02*
X182261905Y-96789580D01*
X182261905Y-96789580D02*
X182309524Y-96837200D01*
X182309524Y-96837200D02*
X182404762Y-96884819D01*
X182404762Y-96884819D02*
X182595238Y-96884819D01*
X182595238Y-96884819D02*
X182690476Y-96837200D01*
X182690476Y-96837200D02*
X182738095Y-96789580D01*
X182738095Y-96789580D02*
X182785714Y-96694342D01*
X182785714Y-96694342D02*
X182785714Y-96456247D01*
X182785714Y-96456247D02*
X182738095Y-96361009D01*
X182738095Y-96361009D02*
X182690476Y-96313390D01*
X182690476Y-96313390D02*
X182595238Y-96265771D01*
X182595238Y-96265771D02*
X182404762Y-96265771D01*
X182404762Y-96265771D02*
X182309524Y-96313390D01*
X182309524Y-96313390D02*
X182261905Y-96361009D01*
X182261905Y-96361009D02*
X182214286Y-96456247D01*
X170666667Y-92157200D02*
X170809524Y-92204819D01*
X170809524Y-92204819D02*
X171047619Y-92204819D01*
X171047619Y-92204819D02*
X171142857Y-92157200D01*
X171142857Y-92157200D02*
X171190476Y-92109580D01*
X171190476Y-92109580D02*
X171238095Y-92014342D01*
X171238095Y-92014342D02*
X171238095Y-91919104D01*
X171238095Y-91919104D02*
X171190476Y-91823866D01*
X171190476Y-91823866D02*
X171142857Y-91776247D01*
X171142857Y-91776247D02*
X171047619Y-91728628D01*
X171047619Y-91728628D02*
X170857143Y-91681009D01*
X170857143Y-91681009D02*
X170761905Y-91633390D01*
X170761905Y-91633390D02*
X170714286Y-91585771D01*
X170714286Y-91585771D02*
X170666667Y-91490533D01*
X170666667Y-91490533D02*
X170666667Y-91395295D01*
X170666667Y-91395295D02*
X170714286Y-91300057D01*
X170714286Y-91300057D02*
X170761905Y-91252438D01*
X170761905Y-91252438D02*
X170857143Y-91204819D01*
X170857143Y-91204819D02*
X171095238Y-91204819D01*
X171095238Y-91204819D02*
X171238095Y-91252438D01*
X171571429Y-91204819D02*
X171809524Y-92204819D01*
X171809524Y-92204819D02*
X172000000Y-91490533D01*
X172000000Y-91490533D02*
X172190476Y-92204819D01*
X172190476Y-92204819D02*
X172428572Y-91204819D01*
X172761905Y-91300057D02*
X172809524Y-91252438D01*
X172809524Y-91252438D02*
X172904762Y-91204819D01*
X172904762Y-91204819D02*
X173142857Y-91204819D01*
X173142857Y-91204819D02*
X173238095Y-91252438D01*
X173238095Y-91252438D02*
X173285714Y-91300057D01*
X173285714Y-91300057D02*
X173333333Y-91395295D01*
X173333333Y-91395295D02*
X173333333Y-91490533D01*
X173333333Y-91490533D02*
X173285714Y-91633390D01*
X173285714Y-91633390D02*
X172714286Y-92204819D01*
X172714286Y-92204819D02*
X173333333Y-92204819D01*
X139833333Y-97039580D02*
X139785714Y-97087200D01*
X139785714Y-97087200D02*
X139642857Y-97134819D01*
X139642857Y-97134819D02*
X139547619Y-97134819D01*
X139547619Y-97134819D02*
X139404762Y-97087200D01*
X139404762Y-97087200D02*
X139309524Y-96991961D01*
X139309524Y-96991961D02*
X139261905Y-96896723D01*
X139261905Y-96896723D02*
X139214286Y-96706247D01*
X139214286Y-96706247D02*
X139214286Y-96563390D01*
X139214286Y-96563390D02*
X139261905Y-96372914D01*
X139261905Y-96372914D02*
X139309524Y-96277676D01*
X139309524Y-96277676D02*
X139404762Y-96182438D01*
X139404762Y-96182438D02*
X139547619Y-96134819D01*
X139547619Y-96134819D02*
X139642857Y-96134819D01*
X139642857Y-96134819D02*
X139785714Y-96182438D01*
X139785714Y-96182438D02*
X139833333Y-96230057D01*
X140166667Y-96134819D02*
X140785714Y-96134819D01*
X140785714Y-96134819D02*
X140452381Y-96515771D01*
X140452381Y-96515771D02*
X140595238Y-96515771D01*
X140595238Y-96515771D02*
X140690476Y-96563390D01*
X140690476Y-96563390D02*
X140738095Y-96611009D01*
X140738095Y-96611009D02*
X140785714Y-96706247D01*
X140785714Y-96706247D02*
X140785714Y-96944342D01*
X140785714Y-96944342D02*
X140738095Y-97039580D01*
X140738095Y-97039580D02*
X140690476Y-97087200D01*
X140690476Y-97087200D02*
X140595238Y-97134819D01*
X140595238Y-97134819D02*
X140309524Y-97134819D01*
X140309524Y-97134819D02*
X140214286Y-97087200D01*
X140214286Y-97087200D02*
X140166667Y-97039580D01*
X162238095Y-94054819D02*
X162238095Y-94864342D01*
X162238095Y-94864342D02*
X162285714Y-94959580D01*
X162285714Y-94959580D02*
X162333333Y-95007200D01*
X162333333Y-95007200D02*
X162428571Y-95054819D01*
X162428571Y-95054819D02*
X162619047Y-95054819D01*
X162619047Y-95054819D02*
X162714285Y-95007200D01*
X162714285Y-95007200D02*
X162761904Y-94959580D01*
X162761904Y-94959580D02*
X162809523Y-94864342D01*
X162809523Y-94864342D02*
X162809523Y-94054819D01*
X163809523Y-95054819D02*
X163238095Y-95054819D01*
X163523809Y-95054819D02*
X163523809Y-94054819D01*
X163523809Y-94054819D02*
X163428571Y-94197676D01*
X163428571Y-94197676D02*
X163333333Y-94292914D01*
X163333333Y-94292914D02*
X163238095Y-94340533D01*
X135738095Y-75902819D02*
X136309523Y-75902819D01*
X136023809Y-76902819D02*
X136023809Y-75902819D01*
X136642857Y-76902819D02*
X136642857Y-75902819D01*
X136642857Y-75902819D02*
X137023809Y-75902819D01*
X137023809Y-75902819D02*
X137119047Y-75950438D01*
X137119047Y-75950438D02*
X137166666Y-75998057D01*
X137166666Y-75998057D02*
X137214285Y-76093295D01*
X137214285Y-76093295D02*
X137214285Y-76236152D01*
X137214285Y-76236152D02*
X137166666Y-76331390D01*
X137166666Y-76331390D02*
X137119047Y-76379009D01*
X137119047Y-76379009D02*
X137023809Y-76426628D01*
X137023809Y-76426628D02*
X136642857Y-76426628D01*
X138071428Y-76236152D02*
X138071428Y-76902819D01*
X137833333Y-75855200D02*
X137595238Y-76569485D01*
X137595238Y-76569485D02*
X138214285Y-76569485D01*
X139720180Y-99816666D02*
X139005895Y-99816666D01*
X139005895Y-99816666D02*
X138863038Y-99769047D01*
X138863038Y-99769047D02*
X138767800Y-99673809D01*
X138767800Y-99673809D02*
X138720180Y-99530952D01*
X138720180Y-99530952D02*
X138720180Y-99435714D01*
X139624942Y-100245238D02*
X139672561Y-100292857D01*
X139672561Y-100292857D02*
X139720180Y-100388095D01*
X139720180Y-100388095D02*
X139720180Y-100626190D01*
X139720180Y-100626190D02*
X139672561Y-100721428D01*
X139672561Y-100721428D02*
X139624942Y-100769047D01*
X139624942Y-100769047D02*
X139529704Y-100816666D01*
X139529704Y-100816666D02*
X139434466Y-100816666D01*
X139434466Y-100816666D02*
X139291609Y-100769047D01*
X139291609Y-100769047D02*
X138720180Y-100197619D01*
X138720180Y-100197619D02*
X138720180Y-100816666D01*
X187554819Y-101833333D02*
X188269104Y-101833333D01*
X188269104Y-101833333D02*
X188411961Y-101880952D01*
X188411961Y-101880952D02*
X188507200Y-101976190D01*
X188507200Y-101976190D02*
X188554819Y-102119047D01*
X188554819Y-102119047D02*
X188554819Y-102214285D01*
X187554819Y-100880952D02*
X187554819Y-101357142D01*
X187554819Y-101357142D02*
X188031009Y-101404761D01*
X188031009Y-101404761D02*
X187983390Y-101357142D01*
X187983390Y-101357142D02*
X187935771Y-101261904D01*
X187935771Y-101261904D02*
X187935771Y-101023809D01*
X187935771Y-101023809D02*
X187983390Y-100928571D01*
X187983390Y-100928571D02*
X188031009Y-100880952D01*
X188031009Y-100880952D02*
X188126247Y-100833333D01*
X188126247Y-100833333D02*
X188364342Y-100833333D01*
X188364342Y-100833333D02*
X188459580Y-100880952D01*
X188459580Y-100880952D02*
X188507200Y-100928571D01*
X188507200Y-100928571D02*
X188554819Y-101023809D01*
X188554819Y-101023809D02*
X188554819Y-101261904D01*
X188554819Y-101261904D02*
X188507200Y-101357142D01*
X188507200Y-101357142D02*
X188459580Y-101404761D01*
X168674819Y-84922262D02*
X169389104Y-84922262D01*
X169389104Y-84922262D02*
X169531961Y-84969881D01*
X169531961Y-84969881D02*
X169627200Y-85065119D01*
X169627200Y-85065119D02*
X169674819Y-85207976D01*
X169674819Y-85207976D02*
X169674819Y-85303214D01*
X169770057Y-84684167D02*
X169770057Y-83922262D01*
X168674819Y-83398452D02*
X169389104Y-83398452D01*
X169389104Y-83398452D02*
X169531961Y-83446071D01*
X169531961Y-83446071D02*
X169627200Y-83541309D01*
X169627200Y-83541309D02*
X169674819Y-83684166D01*
X169674819Y-83684166D02*
X169674819Y-83779404D01*
X168674819Y-83065118D02*
X168674819Y-82493690D01*
X169674819Y-82779404D02*
X168674819Y-82779404D01*
X169389104Y-82207975D02*
X169389104Y-81731785D01*
X169674819Y-82303213D02*
X168674819Y-81969880D01*
X168674819Y-81969880D02*
X169674819Y-81636547D01*
X168722438Y-80779404D02*
X168674819Y-80874642D01*
X168674819Y-80874642D02*
X168674819Y-81017499D01*
X168674819Y-81017499D02*
X168722438Y-81160356D01*
X168722438Y-81160356D02*
X168817676Y-81255594D01*
X168817676Y-81255594D02*
X168912914Y-81303213D01*
X168912914Y-81303213D02*
X169103390Y-81350832D01*
X169103390Y-81350832D02*
X169246247Y-81350832D01*
X169246247Y-81350832D02*
X169436723Y-81303213D01*
X169436723Y-81303213D02*
X169531961Y-81255594D01*
X169531961Y-81255594D02*
X169627200Y-81160356D01*
X169627200Y-81160356D02*
X169674819Y-81017499D01*
X169674819Y-81017499D02*
X169674819Y-80922261D01*
X169674819Y-80922261D02*
X169627200Y-80779404D01*
X169627200Y-80779404D02*
X169579580Y-80731785D01*
X169579580Y-80731785D02*
X169246247Y-80731785D01*
X169246247Y-80731785D02*
X169246247Y-80922261D01*
X169674819Y-79779404D02*
X169674819Y-80350832D01*
X169674819Y-80065118D02*
X168674819Y-80065118D01*
X168674819Y-80065118D02*
X168817676Y-80160356D01*
X168817676Y-80160356D02*
X168912914Y-80255594D01*
X168912914Y-80255594D02*
X168960533Y-80350832D01*
X150613095Y-96279819D02*
X150613095Y-97089342D01*
X150613095Y-97089342D02*
X150660714Y-97184580D01*
X150660714Y-97184580D02*
X150708333Y-97232200D01*
X150708333Y-97232200D02*
X150803571Y-97279819D01*
X150803571Y-97279819D02*
X150994047Y-97279819D01*
X150994047Y-97279819D02*
X151089285Y-97232200D01*
X151089285Y-97232200D02*
X151136904Y-97184580D01*
X151136904Y-97184580D02*
X151184523Y-97089342D01*
X151184523Y-97089342D02*
X151184523Y-96279819D01*
X152136904Y-96279819D02*
X151660714Y-96279819D01*
X151660714Y-96279819D02*
X151613095Y-96756009D01*
X151613095Y-96756009D02*
X151660714Y-96708390D01*
X151660714Y-96708390D02*
X151755952Y-96660771D01*
X151755952Y-96660771D02*
X151994047Y-96660771D01*
X151994047Y-96660771D02*
X152089285Y-96708390D01*
X152089285Y-96708390D02*
X152136904Y-96756009D01*
X152136904Y-96756009D02*
X152184523Y-96851247D01*
X152184523Y-96851247D02*
X152184523Y-97089342D01*
X152184523Y-97089342D02*
X152136904Y-97184580D01*
X152136904Y-97184580D02*
X152089285Y-97232200D01*
X152089285Y-97232200D02*
X151994047Y-97279819D01*
X151994047Y-97279819D02*
X151755952Y-97279819D01*
X151755952Y-97279819D02*
X151660714Y-97232200D01*
X151660714Y-97232200D02*
X151613095Y-97184580D01*
X139833333Y-90929580D02*
X139785714Y-90977200D01*
X139785714Y-90977200D02*
X139642857Y-91024819D01*
X139642857Y-91024819D02*
X139547619Y-91024819D01*
X139547619Y-91024819D02*
X139404762Y-90977200D01*
X139404762Y-90977200D02*
X139309524Y-90881961D01*
X139309524Y-90881961D02*
X139261905Y-90786723D01*
X139261905Y-90786723D02*
X139214286Y-90596247D01*
X139214286Y-90596247D02*
X139214286Y-90453390D01*
X139214286Y-90453390D02*
X139261905Y-90262914D01*
X139261905Y-90262914D02*
X139309524Y-90167676D01*
X139309524Y-90167676D02*
X139404762Y-90072438D01*
X139404762Y-90072438D02*
X139547619Y-90024819D01*
X139547619Y-90024819D02*
X139642857Y-90024819D01*
X139642857Y-90024819D02*
X139785714Y-90072438D01*
X139785714Y-90072438D02*
X139833333Y-90120057D01*
X140738095Y-90024819D02*
X140261905Y-90024819D01*
X140261905Y-90024819D02*
X140214286Y-90501009D01*
X140214286Y-90501009D02*
X140261905Y-90453390D01*
X140261905Y-90453390D02*
X140357143Y-90405771D01*
X140357143Y-90405771D02*
X140595238Y-90405771D01*
X140595238Y-90405771D02*
X140690476Y-90453390D01*
X140690476Y-90453390D02*
X140738095Y-90501009D01*
X140738095Y-90501009D02*
X140785714Y-90596247D01*
X140785714Y-90596247D02*
X140785714Y-90834342D01*
X140785714Y-90834342D02*
X140738095Y-90929580D01*
X140738095Y-90929580D02*
X140690476Y-90977200D01*
X140690476Y-90977200D02*
X140595238Y-91024819D01*
X140595238Y-91024819D02*
X140357143Y-91024819D01*
X140357143Y-91024819D02*
X140261905Y-90977200D01*
X140261905Y-90977200D02*
X140214286Y-90929580D01*
X145679580Y-98166666D02*
X145727200Y-98214285D01*
X145727200Y-98214285D02*
X145774819Y-98357142D01*
X145774819Y-98357142D02*
X145774819Y-98452380D01*
X145774819Y-98452380D02*
X145727200Y-98595237D01*
X145727200Y-98595237D02*
X145631961Y-98690475D01*
X145631961Y-98690475D02*
X145536723Y-98738094D01*
X145536723Y-98738094D02*
X145346247Y-98785713D01*
X145346247Y-98785713D02*
X145203390Y-98785713D01*
X145203390Y-98785713D02*
X145012914Y-98738094D01*
X145012914Y-98738094D02*
X144917676Y-98690475D01*
X144917676Y-98690475D02*
X144822438Y-98595237D01*
X144822438Y-98595237D02*
X144774819Y-98452380D01*
X144774819Y-98452380D02*
X144774819Y-98357142D01*
X144774819Y-98357142D02*
X144822438Y-98214285D01*
X144822438Y-98214285D02*
X144870057Y-98166666D01*
X144774819Y-97833332D02*
X144774819Y-97166666D01*
X144774819Y-97166666D02*
X145774819Y-97595237D01*
X172888095Y-74204819D02*
X172888095Y-75014342D01*
X172888095Y-75014342D02*
X172935714Y-75109580D01*
X172935714Y-75109580D02*
X172983333Y-75157200D01*
X172983333Y-75157200D02*
X173078571Y-75204819D01*
X173078571Y-75204819D02*
X173269047Y-75204819D01*
X173269047Y-75204819D02*
X173364285Y-75157200D01*
X173364285Y-75157200D02*
X173411904Y-75109580D01*
X173411904Y-75109580D02*
X173459523Y-75014342D01*
X173459523Y-75014342D02*
X173459523Y-74204819D01*
X174364285Y-74538152D02*
X174364285Y-75204819D01*
X174126190Y-74157200D02*
X173888095Y-74871485D01*
X173888095Y-74871485D02*
X174507142Y-74871485D01*
X147738095Y-75902819D02*
X148309523Y-75902819D01*
X148023809Y-76902819D02*
X148023809Y-75902819D01*
X148642857Y-76902819D02*
X148642857Y-75902819D01*
X148642857Y-75902819D02*
X149023809Y-75902819D01*
X149023809Y-75902819D02*
X149119047Y-75950438D01*
X149119047Y-75950438D02*
X149166666Y-75998057D01*
X149166666Y-75998057D02*
X149214285Y-76093295D01*
X149214285Y-76093295D02*
X149214285Y-76236152D01*
X149214285Y-76236152D02*
X149166666Y-76331390D01*
X149166666Y-76331390D02*
X149119047Y-76379009D01*
X149119047Y-76379009D02*
X149023809Y-76426628D01*
X149023809Y-76426628D02*
X148642857Y-76426628D01*
X149547619Y-75902819D02*
X150166666Y-75902819D01*
X150166666Y-75902819D02*
X149833333Y-76283771D01*
X149833333Y-76283771D02*
X149976190Y-76283771D01*
X149976190Y-76283771D02*
X150071428Y-76331390D01*
X150071428Y-76331390D02*
X150119047Y-76379009D01*
X150119047Y-76379009D02*
X150166666Y-76474247D01*
X150166666Y-76474247D02*
X150166666Y-76712342D01*
X150166666Y-76712342D02*
X150119047Y-76807580D01*
X150119047Y-76807580D02*
X150071428Y-76855200D01*
X150071428Y-76855200D02*
X149976190Y-76902819D01*
X149976190Y-76902819D02*
X149690476Y-76902819D01*
X149690476Y-76902819D02*
X149595238Y-76855200D01*
X149595238Y-76855200D02*
X149547619Y-76807580D01*
X144333333Y-94024819D02*
X144000000Y-93548628D01*
X143761905Y-94024819D02*
X143761905Y-93024819D01*
X143761905Y-93024819D02*
X144142857Y-93024819D01*
X144142857Y-93024819D02*
X144238095Y-93072438D01*
X144238095Y-93072438D02*
X144285714Y-93120057D01*
X144285714Y-93120057D02*
X144333333Y-93215295D01*
X144333333Y-93215295D02*
X144333333Y-93358152D01*
X144333333Y-93358152D02*
X144285714Y-93453390D01*
X144285714Y-93453390D02*
X144238095Y-93501009D01*
X144238095Y-93501009D02*
X144142857Y-93548628D01*
X144142857Y-93548628D02*
X143761905Y-93548628D01*
X144714286Y-93120057D02*
X144761905Y-93072438D01*
X144761905Y-93072438D02*
X144857143Y-93024819D01*
X144857143Y-93024819D02*
X145095238Y-93024819D01*
X145095238Y-93024819D02*
X145190476Y-93072438D01*
X145190476Y-93072438D02*
X145238095Y-93120057D01*
X145238095Y-93120057D02*
X145285714Y-93215295D01*
X145285714Y-93215295D02*
X145285714Y-93310533D01*
X145285714Y-93310533D02*
X145238095Y-93453390D01*
X145238095Y-93453390D02*
X144666667Y-94024819D01*
X144666667Y-94024819D02*
X145285714Y-94024819D01*
X164357142Y-100024819D02*
X164023809Y-99548628D01*
X163785714Y-100024819D02*
X163785714Y-99024819D01*
X163785714Y-99024819D02*
X164166666Y-99024819D01*
X164166666Y-99024819D02*
X164261904Y-99072438D01*
X164261904Y-99072438D02*
X164309523Y-99120057D01*
X164309523Y-99120057D02*
X164357142Y-99215295D01*
X164357142Y-99215295D02*
X164357142Y-99358152D01*
X164357142Y-99358152D02*
X164309523Y-99453390D01*
X164309523Y-99453390D02*
X164261904Y-99501009D01*
X164261904Y-99501009D02*
X164166666Y-99548628D01*
X164166666Y-99548628D02*
X163785714Y-99548628D01*
X165309523Y-100024819D02*
X164738095Y-100024819D01*
X165023809Y-100024819D02*
X165023809Y-99024819D01*
X165023809Y-99024819D02*
X164928571Y-99167676D01*
X164928571Y-99167676D02*
X164833333Y-99262914D01*
X164833333Y-99262914D02*
X164738095Y-99310533D01*
X166166666Y-99358152D02*
X166166666Y-100024819D01*
X165928571Y-98977200D02*
X165690476Y-99691485D01*
X165690476Y-99691485D02*
X166309523Y-99691485D01*
X147182142Y-104524819D02*
X146848809Y-104048628D01*
X146610714Y-104524819D02*
X146610714Y-103524819D01*
X146610714Y-103524819D02*
X146991666Y-103524819D01*
X146991666Y-103524819D02*
X147086904Y-103572438D01*
X147086904Y-103572438D02*
X147134523Y-103620057D01*
X147134523Y-103620057D02*
X147182142Y-103715295D01*
X147182142Y-103715295D02*
X147182142Y-103858152D01*
X147182142Y-103858152D02*
X147134523Y-103953390D01*
X147134523Y-103953390D02*
X147086904Y-104001009D01*
X147086904Y-104001009D02*
X146991666Y-104048628D01*
X146991666Y-104048628D02*
X146610714Y-104048628D01*
X148134523Y-104524819D02*
X147563095Y-104524819D01*
X147848809Y-104524819D02*
X147848809Y-103524819D01*
X147848809Y-103524819D02*
X147753571Y-103667676D01*
X147753571Y-103667676D02*
X147658333Y-103762914D01*
X147658333Y-103762914D02*
X147563095Y-103810533D01*
X148467857Y-103524819D02*
X149086904Y-103524819D01*
X149086904Y-103524819D02*
X148753571Y-103905771D01*
X148753571Y-103905771D02*
X148896428Y-103905771D01*
X148896428Y-103905771D02*
X148991666Y-103953390D01*
X148991666Y-103953390D02*
X149039285Y-104001009D01*
X149039285Y-104001009D02*
X149086904Y-104096247D01*
X149086904Y-104096247D02*
X149086904Y-104334342D01*
X149086904Y-104334342D02*
X149039285Y-104429580D01*
X149039285Y-104429580D02*
X148991666Y-104477200D01*
X148991666Y-104477200D02*
X148896428Y-104524819D01*
X148896428Y-104524819D02*
X148610714Y-104524819D01*
X148610714Y-104524819D02*
X148515476Y-104477200D01*
X148515476Y-104477200D02*
X148467857Y-104429580D01*
X189357142Y-74679580D02*
X189309523Y-74727200D01*
X189309523Y-74727200D02*
X189166666Y-74774819D01*
X189166666Y-74774819D02*
X189071428Y-74774819D01*
X189071428Y-74774819D02*
X188928571Y-74727200D01*
X188928571Y-74727200D02*
X188833333Y-74631961D01*
X188833333Y-74631961D02*
X188785714Y-74536723D01*
X188785714Y-74536723D02*
X188738095Y-74346247D01*
X188738095Y-74346247D02*
X188738095Y-74203390D01*
X188738095Y-74203390D02*
X188785714Y-74012914D01*
X188785714Y-74012914D02*
X188833333Y-73917676D01*
X188833333Y-73917676D02*
X188928571Y-73822438D01*
X188928571Y-73822438D02*
X189071428Y-73774819D01*
X189071428Y-73774819D02*
X189166666Y-73774819D01*
X189166666Y-73774819D02*
X189309523Y-73822438D01*
X189309523Y-73822438D02*
X189357142Y-73870057D01*
X190309523Y-74774819D02*
X189738095Y-74774819D01*
X190023809Y-74774819D02*
X190023809Y-73774819D01*
X190023809Y-73774819D02*
X189928571Y-73917676D01*
X189928571Y-73917676D02*
X189833333Y-74012914D01*
X189833333Y-74012914D02*
X189738095Y-74060533D01*
X191261904Y-74774819D02*
X190690476Y-74774819D01*
X190976190Y-74774819D02*
X190976190Y-73774819D01*
X190976190Y-73774819D02*
X190880952Y-73917676D01*
X190880952Y-73917676D02*
X190785714Y-74012914D01*
X190785714Y-74012914D02*
X190690476Y-74060533D01*
X156333333Y-98539580D02*
X156285714Y-98587200D01*
X156285714Y-98587200D02*
X156142857Y-98634819D01*
X156142857Y-98634819D02*
X156047619Y-98634819D01*
X156047619Y-98634819D02*
X155904762Y-98587200D01*
X155904762Y-98587200D02*
X155809524Y-98491961D01*
X155809524Y-98491961D02*
X155761905Y-98396723D01*
X155761905Y-98396723D02*
X155714286Y-98206247D01*
X155714286Y-98206247D02*
X155714286Y-98063390D01*
X155714286Y-98063390D02*
X155761905Y-97872914D01*
X155761905Y-97872914D02*
X155809524Y-97777676D01*
X155809524Y-97777676D02*
X155904762Y-97682438D01*
X155904762Y-97682438D02*
X156047619Y-97634819D01*
X156047619Y-97634819D02*
X156142857Y-97634819D01*
X156142857Y-97634819D02*
X156285714Y-97682438D01*
X156285714Y-97682438D02*
X156333333Y-97730057D01*
X157190476Y-97968152D02*
X157190476Y-98634819D01*
X156952381Y-97587200D02*
X156714286Y-98301485D01*
X156714286Y-98301485D02*
X157333333Y-98301485D01*
X162833333Y-93539580D02*
X162785714Y-93587200D01*
X162785714Y-93587200D02*
X162642857Y-93634819D01*
X162642857Y-93634819D02*
X162547619Y-93634819D01*
X162547619Y-93634819D02*
X162404762Y-93587200D01*
X162404762Y-93587200D02*
X162309524Y-93491961D01*
X162309524Y-93491961D02*
X162261905Y-93396723D01*
X162261905Y-93396723D02*
X162214286Y-93206247D01*
X162214286Y-93206247D02*
X162214286Y-93063390D01*
X162214286Y-93063390D02*
X162261905Y-92872914D01*
X162261905Y-92872914D02*
X162309524Y-92777676D01*
X162309524Y-92777676D02*
X162404762Y-92682438D01*
X162404762Y-92682438D02*
X162547619Y-92634819D01*
X162547619Y-92634819D02*
X162642857Y-92634819D01*
X162642857Y-92634819D02*
X162785714Y-92682438D01*
X162785714Y-92682438D02*
X162833333Y-92730057D01*
X163214286Y-92730057D02*
X163261905Y-92682438D01*
X163261905Y-92682438D02*
X163357143Y-92634819D01*
X163357143Y-92634819D02*
X163595238Y-92634819D01*
X163595238Y-92634819D02*
X163690476Y-92682438D01*
X163690476Y-92682438D02*
X163738095Y-92730057D01*
X163738095Y-92730057D02*
X163785714Y-92825295D01*
X163785714Y-92825295D02*
X163785714Y-92920533D01*
X163785714Y-92920533D02*
X163738095Y-93063390D01*
X163738095Y-93063390D02*
X163166667Y-93634819D01*
X163166667Y-93634819D02*
X163785714Y-93634819D01*
X143738095Y-75902819D02*
X144309523Y-75902819D01*
X144023809Y-76902819D02*
X144023809Y-75902819D01*
X144642857Y-76902819D02*
X144642857Y-75902819D01*
X144642857Y-75902819D02*
X145023809Y-75902819D01*
X145023809Y-75902819D02*
X145119047Y-75950438D01*
X145119047Y-75950438D02*
X145166666Y-75998057D01*
X145166666Y-75998057D02*
X145214285Y-76093295D01*
X145214285Y-76093295D02*
X145214285Y-76236152D01*
X145214285Y-76236152D02*
X145166666Y-76331390D01*
X145166666Y-76331390D02*
X145119047Y-76379009D01*
X145119047Y-76379009D02*
X145023809Y-76426628D01*
X145023809Y-76426628D02*
X144642857Y-76426628D01*
X145595238Y-75998057D02*
X145642857Y-75950438D01*
X145642857Y-75950438D02*
X145738095Y-75902819D01*
X145738095Y-75902819D02*
X145976190Y-75902819D01*
X145976190Y-75902819D02*
X146071428Y-75950438D01*
X146071428Y-75950438D02*
X146119047Y-75998057D01*
X146119047Y-75998057D02*
X146166666Y-76093295D01*
X146166666Y-76093295D02*
X146166666Y-76188533D01*
X146166666Y-76188533D02*
X146119047Y-76331390D01*
X146119047Y-76331390D02*
X145547619Y-76902819D01*
X145547619Y-76902819D02*
X146166666Y-76902819D01*
X164357142Y-103024819D02*
X164023809Y-102548628D01*
X163785714Y-103024819D02*
X163785714Y-102024819D01*
X163785714Y-102024819D02*
X164166666Y-102024819D01*
X164166666Y-102024819D02*
X164261904Y-102072438D01*
X164261904Y-102072438D02*
X164309523Y-102120057D01*
X164309523Y-102120057D02*
X164357142Y-102215295D01*
X164357142Y-102215295D02*
X164357142Y-102358152D01*
X164357142Y-102358152D02*
X164309523Y-102453390D01*
X164309523Y-102453390D02*
X164261904Y-102501009D01*
X164261904Y-102501009D02*
X164166666Y-102548628D01*
X164166666Y-102548628D02*
X163785714Y-102548628D01*
X165309523Y-103024819D02*
X164738095Y-103024819D01*
X165023809Y-103024819D02*
X165023809Y-102024819D01*
X165023809Y-102024819D02*
X164928571Y-102167676D01*
X164928571Y-102167676D02*
X164833333Y-102262914D01*
X164833333Y-102262914D02*
X164738095Y-102310533D01*
X166261904Y-103024819D02*
X165690476Y-103024819D01*
X165976190Y-103024819D02*
X165976190Y-102024819D01*
X165976190Y-102024819D02*
X165880952Y-102167676D01*
X165880952Y-102167676D02*
X165785714Y-102262914D01*
X165785714Y-102262914D02*
X165690476Y-102310533D01*
X193357142Y-75024819D02*
X193023809Y-74548628D01*
X192785714Y-75024819D02*
X192785714Y-74024819D01*
X192785714Y-74024819D02*
X193166666Y-74024819D01*
X193166666Y-74024819D02*
X193261904Y-74072438D01*
X193261904Y-74072438D02*
X193309523Y-74120057D01*
X193309523Y-74120057D02*
X193357142Y-74215295D01*
X193357142Y-74215295D02*
X193357142Y-74358152D01*
X193357142Y-74358152D02*
X193309523Y-74453390D01*
X193309523Y-74453390D02*
X193261904Y-74501009D01*
X193261904Y-74501009D02*
X193166666Y-74548628D01*
X193166666Y-74548628D02*
X192785714Y-74548628D01*
X194309523Y-75024819D02*
X193738095Y-75024819D01*
X194023809Y-75024819D02*
X194023809Y-74024819D01*
X194023809Y-74024819D02*
X193928571Y-74167676D01*
X193928571Y-74167676D02*
X193833333Y-74262914D01*
X193833333Y-74262914D02*
X193738095Y-74310533D01*
X194928571Y-74024819D02*
X195023809Y-74024819D01*
X195023809Y-74024819D02*
X195119047Y-74072438D01*
X195119047Y-74072438D02*
X195166666Y-74120057D01*
X195166666Y-74120057D02*
X195214285Y-74215295D01*
X195214285Y-74215295D02*
X195261904Y-74405771D01*
X195261904Y-74405771D02*
X195261904Y-74643866D01*
X195261904Y-74643866D02*
X195214285Y-74834342D01*
X195214285Y-74834342D02*
X195166666Y-74929580D01*
X195166666Y-74929580D02*
X195119047Y-74977200D01*
X195119047Y-74977200D02*
X195023809Y-75024819D01*
X195023809Y-75024819D02*
X194928571Y-75024819D01*
X194928571Y-75024819D02*
X194833333Y-74977200D01*
X194833333Y-74977200D02*
X194785714Y-74929580D01*
X194785714Y-74929580D02*
X194738095Y-74834342D01*
X194738095Y-74834342D02*
X194690476Y-74643866D01*
X194690476Y-74643866D02*
X194690476Y-74405771D01*
X194690476Y-74405771D02*
X194738095Y-74215295D01*
X194738095Y-74215295D02*
X194785714Y-74120057D01*
X194785714Y-74120057D02*
X194833333Y-74072438D01*
X194833333Y-74072438D02*
X194928571Y-74024819D01*
X133104819Y-68838333D02*
X133819104Y-68838333D01*
X133819104Y-68838333D02*
X133961961Y-68885952D01*
X133961961Y-68885952D02*
X134057200Y-68981190D01*
X134057200Y-68981190D02*
X134104819Y-69124047D01*
X134104819Y-69124047D02*
X134104819Y-69219285D01*
X133104819Y-68457380D02*
X133104819Y-67838333D01*
X133104819Y-67838333D02*
X133485771Y-68171666D01*
X133485771Y-68171666D02*
X133485771Y-68028809D01*
X133485771Y-68028809D02*
X133533390Y-67933571D01*
X133533390Y-67933571D02*
X133581009Y-67885952D01*
X133581009Y-67885952D02*
X133676247Y-67838333D01*
X133676247Y-67838333D02*
X133914342Y-67838333D01*
X133914342Y-67838333D02*
X134009580Y-67885952D01*
X134009580Y-67885952D02*
X134057200Y-67933571D01*
X134057200Y-67933571D02*
X134104819Y-68028809D01*
X134104819Y-68028809D02*
X134104819Y-68314523D01*
X134104819Y-68314523D02*
X134057200Y-68409761D01*
X134057200Y-68409761D02*
X134009580Y-68457380D01*
X143384819Y-106166666D02*
X142908628Y-106499999D01*
X143384819Y-106738094D02*
X142384819Y-106738094D01*
X142384819Y-106738094D02*
X142384819Y-106357142D01*
X142384819Y-106357142D02*
X142432438Y-106261904D01*
X142432438Y-106261904D02*
X142480057Y-106214285D01*
X142480057Y-106214285D02*
X142575295Y-106166666D01*
X142575295Y-106166666D02*
X142718152Y-106166666D01*
X142718152Y-106166666D02*
X142813390Y-106214285D01*
X142813390Y-106214285D02*
X142861009Y-106261904D01*
X142861009Y-106261904D02*
X142908628Y-106357142D01*
X142908628Y-106357142D02*
X142908628Y-106738094D01*
X142384819Y-105261904D02*
X142384819Y-105738094D01*
X142384819Y-105738094D02*
X142861009Y-105785713D01*
X142861009Y-105785713D02*
X142813390Y-105738094D01*
X142813390Y-105738094D02*
X142765771Y-105642856D01*
X142765771Y-105642856D02*
X142765771Y-105404761D01*
X142765771Y-105404761D02*
X142813390Y-105309523D01*
X142813390Y-105309523D02*
X142861009Y-105261904D01*
X142861009Y-105261904D02*
X142956247Y-105214285D01*
X142956247Y-105214285D02*
X143194342Y-105214285D01*
X143194342Y-105214285D02*
X143289580Y-105261904D01*
X143289580Y-105261904D02*
X143337200Y-105309523D01*
X143337200Y-105309523D02*
X143384819Y-105404761D01*
X143384819Y-105404761D02*
X143384819Y-105642856D01*
X143384819Y-105642856D02*
X143337200Y-105738094D01*
X143337200Y-105738094D02*
X143289580Y-105785713D01*
X139738095Y-75902819D02*
X140309523Y-75902819D01*
X140023809Y-76902819D02*
X140023809Y-75902819D01*
X140642857Y-76902819D02*
X140642857Y-75902819D01*
X140642857Y-75902819D02*
X141023809Y-75902819D01*
X141023809Y-75902819D02*
X141119047Y-75950438D01*
X141119047Y-75950438D02*
X141166666Y-75998057D01*
X141166666Y-75998057D02*
X141214285Y-76093295D01*
X141214285Y-76093295D02*
X141214285Y-76236152D01*
X141214285Y-76236152D02*
X141166666Y-76331390D01*
X141166666Y-76331390D02*
X141119047Y-76379009D01*
X141119047Y-76379009D02*
X141023809Y-76426628D01*
X141023809Y-76426628D02*
X140642857Y-76426628D01*
X142166666Y-76902819D02*
X141595238Y-76902819D01*
X141880952Y-76902819D02*
X141880952Y-75902819D01*
X141880952Y-75902819D02*
X141785714Y-76045676D01*
X141785714Y-76045676D02*
X141690476Y-76140914D01*
X141690476Y-76140914D02*
X141595238Y-76188533D01*
D11*
%TO.C,U2*%
X177430000Y-77780000D02*
X178680000Y-77780000D01*
X177430000Y-79030000D02*
X177430000Y-77780000D01*
X177430000Y-93220000D02*
X177430000Y-91970000D01*
X178680000Y-93220000D02*
X177430000Y-93220000D01*
X191620000Y-77780000D02*
X192870000Y-77780000D01*
X192870000Y-77780000D02*
X192870000Y-79030000D01*
X192870000Y-91970000D02*
X192870000Y-93220000D01*
X192870000Y-93220000D02*
X191620000Y-93220000D01*
D12*
X191200000Y-77250000D02*
G75*
G02*
X191000000Y-77250000I-100000J0D01*
G01*
X191000000Y-77250000D02*
G75*
G02*
X191200000Y-77250000I100000J0D01*
G01*
D13*
%TO.C,D3*%
X147515000Y-93265000D02*
X147515000Y-94735000D01*
X147515000Y-94735000D02*
X149800000Y-94735000D01*
X149800000Y-93265000D02*
X147515000Y-93265000D01*
%TO.C,R7*%
X144262742Y-92522500D02*
X144737258Y-92522500D01*
X144262742Y-91477500D02*
X144737258Y-91477500D01*
%TO.C,R9*%
X153262742Y-93477500D02*
X153737258Y-93477500D01*
X153262742Y-94522500D02*
X153737258Y-94522500D01*
%TO.C,R8*%
X153262742Y-89977500D02*
X153737258Y-89977500D01*
X153262742Y-91022500D02*
X153737258Y-91022500D01*
%TO.C,R12*%
X152737258Y-104977500D02*
X152262742Y-104977500D01*
X152737258Y-106022500D02*
X152262742Y-106022500D01*
%TO.C,C12*%
X177490000Y-95859420D02*
X177490000Y-96140580D01*
X178510000Y-95859420D02*
X178510000Y-96140580D01*
%TO.C,R3*%
X144772500Y-105587742D02*
X144772500Y-106062258D01*
X143727500Y-105587742D02*
X143727500Y-106062258D01*
%TO.C,C6*%
X155515000Y-100761252D02*
X155515000Y-100238748D01*
X156985000Y-100761252D02*
X156985000Y-100238748D01*
%TO.C,D2*%
X147515000Y-89765000D02*
X147515000Y-91235000D01*
X147515000Y-91235000D02*
X149800000Y-91235000D01*
X149800000Y-89765000D02*
X147515000Y-89765000D01*
%TO.C,U3*%
X143320000Y-100840000D02*
X144730000Y-100840000D01*
X143320000Y-103160000D02*
X144730000Y-103160000D01*
X144730000Y-100840000D02*
X144730000Y-101500000D01*
X144730000Y-102500000D02*
X144730000Y-103160000D01*
X142950000Y-100860000D02*
X142710000Y-100530000D01*
X143190000Y-100530000D01*
X142950000Y-100860000D01*
G36*
X142950000Y-100860000D02*
G01*
X142710000Y-100530000D01*
X143190000Y-100530000D01*
X142950000Y-100860000D01*
G37*
%TO.C,R1*%
X159512742Y-99977500D02*
X159987258Y-99977500D01*
X159512742Y-101022500D02*
X159987258Y-101022500D01*
%TO.C,SW1*%
X188750000Y-70750000D02*
X188750000Y-68250000D01*
X189200000Y-67800000D02*
X188750000Y-68250000D01*
X189200000Y-71200000D02*
X188750000Y-70750000D01*
X190500000Y-66750000D02*
X192500000Y-66750000D01*
X190500000Y-72250000D02*
X192500000Y-72250000D01*
X193800000Y-67800000D02*
X194250000Y-68250000D01*
X193800000Y-71200000D02*
X194250000Y-70750000D01*
X194250000Y-70750000D02*
X194250000Y-68250000D01*
%TO.C,R4*%
X140477500Y-98737258D02*
X140477500Y-98262742D01*
X141522500Y-98737258D02*
X141522500Y-98262742D01*
%TO.C,F1*%
X187602064Y-108410000D02*
X186397936Y-108410000D01*
X187602064Y-106590000D02*
X186397936Y-106590000D01*
%TO.C,C10*%
X185640580Y-76510000D02*
X185359420Y-76510000D01*
X185640580Y-75490000D02*
X185359420Y-75490000D01*
%TO.C,Q1*%
X159760000Y-106060000D02*
X158240000Y-106060000D01*
X159760000Y-106010000D02*
X159760000Y-106060000D01*
X159760000Y-104110000D02*
X159760000Y-104890000D01*
X159760000Y-102940000D02*
X159760000Y-102990000D01*
X158240000Y-106060000D02*
X158240000Y-105060000D01*
X158240000Y-103940000D02*
X158240000Y-102940000D01*
X158240000Y-102940000D02*
X159760000Y-102940000D01*
X160300000Y-104880000D02*
X160060000Y-104550000D01*
X160540000Y-104550000D01*
X160300000Y-104880000D01*
G36*
X160300000Y-104880000D02*
G01*
X160060000Y-104550000D01*
X160540000Y-104550000D01*
X160300000Y-104880000D01*
G37*
%TO.C,R6*%
X182237258Y-94477500D02*
X181762742Y-94477500D01*
X182237258Y-95522500D02*
X181762742Y-95522500D01*
%TO.C,SW2*%
X169250000Y-94500000D02*
X169250000Y-96500000D01*
X170300000Y-93200000D02*
X170750000Y-92750000D01*
X170300000Y-97800000D02*
X170750000Y-98250000D01*
X170750000Y-92750000D02*
X173250000Y-92750000D01*
X170750000Y-98250000D02*
X173250000Y-98250000D01*
X173700000Y-93200000D02*
X173250000Y-92750000D01*
X173700000Y-97800000D02*
X173250000Y-98250000D01*
X174750000Y-94500000D02*
X174750000Y-96500000D01*
%TO.C,C3*%
X140261252Y-95735000D02*
X139738748Y-95735000D01*
X140261252Y-94265000D02*
X139738748Y-94265000D01*
%TO.C,U1*%
X162090000Y-98560000D02*
X162090000Y-98510000D01*
X163910000Y-98560000D02*
X162090000Y-98560000D01*
X163910000Y-98510000D02*
X163910000Y-98560000D01*
X163910000Y-96610000D02*
X163910000Y-97390000D01*
X162090000Y-95490000D02*
X162090000Y-95440000D01*
X162090000Y-95440000D02*
X163910000Y-95440000D01*
X163910000Y-95440000D02*
X163910000Y-95490000D01*
X161550000Y-95490000D02*
X161310000Y-95160000D01*
X161790000Y-95160000D01*
X161550000Y-95490000D01*
G36*
X161550000Y-95490000D02*
G01*
X161310000Y-95160000D01*
X161790000Y-95160000D01*
X161550000Y-95490000D01*
G37*
%TO.C,TP4*%
X137700000Y-75000000D02*
G75*
G02*
X136300000Y-75000000I-700000J0D01*
G01*
X136300000Y-75000000D02*
G75*
G02*
X137700000Y-75000000I700000J0D01*
G01*
%TO.C,J2*%
X134335000Y-95170000D02*
X134965000Y-95170000D01*
X134335000Y-105130000D02*
X134965000Y-105130000D01*
X137435000Y-105130000D02*
X137730000Y-105130000D01*
X137730000Y-95170000D02*
X137435000Y-95170000D01*
X137730000Y-105130000D02*
X137730000Y-95170000D01*
%TO.C,J5*%
X190090000Y-98465000D02*
X190090000Y-100315000D01*
X190090000Y-102685000D02*
X189300000Y-102685000D01*
X190090000Y-104535000D02*
X190090000Y-102685000D01*
X191740000Y-98465000D02*
X190090000Y-98465000D01*
X191740000Y-104535000D02*
X190090000Y-104535000D01*
X194710000Y-103215000D02*
X194710000Y-99785000D01*
%TO.C,J_JTAG1*%
X168330000Y-87077500D02*
X142670000Y-87077500D01*
X168330000Y-77957500D02*
X168330000Y-87077500D01*
X167030000Y-85767500D02*
X143970000Y-85767500D01*
X167030000Y-79267500D02*
X167030000Y-85767500D01*
X163620000Y-76567500D02*
X162620000Y-76567500D01*
X163120000Y-77567500D02*
X163620000Y-76567500D01*
X162620000Y-76567500D02*
X163120000Y-77567500D01*
X157550000Y-79267500D02*
X167030000Y-79267500D01*
X157550000Y-77957500D02*
X157550000Y-79267500D01*
X153450000Y-79267500D02*
X153450000Y-77957500D01*
X143970000Y-85767500D02*
X143970000Y-79267500D01*
X143970000Y-79267500D02*
X153450000Y-79267500D01*
X142670000Y-87077500D02*
X142670000Y-77957500D01*
X142670000Y-77957500D02*
X168330000Y-77957500D01*
%TO.C,U5*%
X149265000Y-98015000D02*
X149990000Y-98015000D01*
X149265000Y-98740000D02*
X149265000Y-98015000D01*
X149265000Y-102235000D02*
X149265000Y-101510000D01*
X149990000Y-102235000D02*
X149265000Y-102235000D01*
X152760000Y-98015000D02*
X153485000Y-98015000D01*
X153485000Y-98015000D02*
X153485000Y-98740000D01*
X153485000Y-101510000D02*
X153485000Y-102235000D01*
X153485000Y-102235000D02*
X152760000Y-102235000D01*
X148765000Y-99125000D02*
X148435000Y-99365000D01*
X148435000Y-98885000D01*
X148765000Y-99125000D01*
G36*
X148765000Y-99125000D02*
G01*
X148435000Y-99365000D01*
X148435000Y-98885000D01*
X148765000Y-99125000D01*
G37*
%TO.C,C5*%
X139859420Y-91490000D02*
X140140580Y-91490000D01*
X139859420Y-92510000D02*
X140140580Y-92510000D01*
%TO.C,C7*%
X146265000Y-98261252D02*
X146265000Y-97738748D01*
X147735000Y-98261252D02*
X147735000Y-97738748D01*
%TO.C,U4*%
D14*
X174530000Y-73500000D02*
G75*
G02*
X174370000Y-73500000I-80000J0D01*
G01*
X174370000Y-73500000D02*
G75*
G02*
X174530000Y-73500000I80000J0D01*
G01*
D13*
%TO.C,TP3*%
X149700000Y-75000000D02*
G75*
G02*
X148300000Y-75000000I-700000J0D01*
G01*
X148300000Y-75000000D02*
G75*
G02*
X149700000Y-75000000I700000J0D01*
G01*
%TO.C,J_ProgUART0_1*%
X167745000Y-99422500D02*
X183245000Y-99422500D01*
X167745000Y-108542500D02*
X167745000Y-99422500D01*
X169045000Y-100732500D02*
X181945000Y-100732500D01*
X169045000Y-107232500D02*
X169045000Y-100732500D01*
X172455000Y-109932500D02*
X173455000Y-109932500D01*
X172955000Y-108932500D02*
X172455000Y-109932500D01*
X173445000Y-107232500D02*
X169045000Y-107232500D01*
X173445000Y-108542500D02*
X173445000Y-107232500D01*
X173455000Y-109932500D02*
X172955000Y-108932500D01*
X177545000Y-107232500D02*
X177545000Y-108542500D01*
X181945000Y-100732500D02*
X181945000Y-107232500D01*
X181945000Y-107232500D02*
X177545000Y-107232500D01*
X183245000Y-99422500D02*
X183245000Y-108542500D01*
X183245000Y-108542500D02*
X167745000Y-108542500D01*
%TO.C,R2*%
X144262742Y-94477500D02*
X144737258Y-94477500D01*
X144262742Y-95522500D02*
X144737258Y-95522500D01*
%TO.C,J4*%
X169270000Y-65855000D02*
X184730000Y-65855000D01*
X169270000Y-68505000D02*
X169270000Y-65855000D01*
X169270000Y-71155000D02*
X169270000Y-69775000D01*
X170650000Y-71155000D02*
X169270000Y-71155000D01*
X171920000Y-68505000D02*
X169270000Y-68505000D01*
X171920000Y-71155000D02*
X171920000Y-68505000D01*
X171920000Y-71155000D02*
X184730000Y-71155000D01*
X184730000Y-71155000D02*
X184730000Y-65855000D01*
%TO.C,R14*%
X164762742Y-100477500D02*
X165237258Y-100477500D01*
X164762742Y-101522500D02*
X165237258Y-101522500D01*
%TO.C,R13*%
X147587742Y-106022500D02*
X148062258Y-106022500D01*
X147587742Y-104977500D02*
X148062258Y-104977500D01*
%TO.C,C11*%
X189738748Y-75265000D02*
X190261252Y-75265000D01*
X189738748Y-76735000D02*
X190261252Y-76735000D01*
%TO.C,C4*%
X156761252Y-97235000D02*
X156238748Y-97235000D01*
X156761252Y-95765000D02*
X156238748Y-95765000D01*
%TO.C,C2*%
X163261252Y-90765000D02*
X162738748Y-90765000D01*
X163261252Y-92235000D02*
X162738748Y-92235000D01*
%TO.C,TP2*%
X145700000Y-75000000D02*
G75*
G02*
X144300000Y-75000000I-700000J0D01*
G01*
X144300000Y-75000000D02*
G75*
G02*
X145700000Y-75000000I700000J0D01*
G01*
%TO.C,R11*%
X164762742Y-103477500D02*
X165237258Y-103477500D01*
X164762742Y-104522500D02*
X165237258Y-104522500D01*
%TO.C,R10*%
X193762742Y-76522500D02*
X194237258Y-76522500D01*
X193762742Y-75477500D02*
X194237258Y-75477500D01*
%TO.C,J3*%
X134650000Y-65855000D02*
X165350000Y-65855000D01*
X134650000Y-68505000D02*
X134650000Y-65855000D01*
X134650000Y-71155000D02*
X134650000Y-69775000D01*
X136030000Y-71155000D02*
X134650000Y-71155000D01*
X137300000Y-68505000D02*
X134650000Y-68505000D01*
X137300000Y-71155000D02*
X137300000Y-68505000D01*
X137300000Y-71155000D02*
X165350000Y-71155000D01*
X165350000Y-71155000D02*
X165350000Y-65855000D01*
%TO.C,R5*%
X140977500Y-105762742D02*
X140977500Y-106237258D01*
X142022500Y-105762742D02*
X142022500Y-106237258D01*
%TO.C,TP1*%
X141700000Y-75000000D02*
G75*
G02*
X140300000Y-75000000I-700000J0D01*
G01*
X140300000Y-75000000D02*
G75*
G02*
X141700000Y-75000000I700000J0D01*
G01*
%TD*%
M02*
